<svg version="1.1" xmlns="http://www.w3.org/2000/svg" xmlns:xlink="http://www.w3.org/1999/xlink"><symbol viewBox="-68 69.6 190 190.4" id="sprite-action-cooperate"><title>action-cooperate</title><path fill="#FFF" d="M-62.8 182.3c.2.8.3 1.7.5 2.5 1-2.1 1.8-4.8 2-8.3-1.1 1.8-1.9 3.7-2.5 5.8zM96.1 178.2c2.1-2.4 4.9-6.6 7.3-10.3-2.3-.9-4.7-1.4-7.3-1.4-2.9 0-5.8.4-8.4 1.5-.2.1-.3.1-.5.2 2.2 3.6 5 7.7 7 10 0 1.3-.1 15.6-.2 27.4h.2v3.7h-.3v4h.3v3.7s-.1 0-.3.1v4.7s-4 .7-11.3.7c-2.3 0-4.9 0-7.8-.1l5.3 5.3 1.3 11c6.4-4.7 12.2-10.3 17.1-16.5l-2.7-.3s.3-41.6.3-43.7zM116 185.8c.3-1.5.7-3 .9-4.5-.7-1.8-1.6-3.5-2.6-5 0 4.1.6 7.2 1.7 9.5zM-18.3 188.3c0-4.6-1.4-8.9-3.7-12.5.1 6.1 1.8 9.9 3.7 12.5zM57.7 225.9c-4.4.3-8.5.5-12.1.5-11.3 0-17.9-1.1-17.9-1.1s.4-54.8.4-57.7c2.8-2.8 6.4-7.9 9.4-12.7-3.2-1.2-6.6-1.9-10.2-1.9H27c-3.3 0-7 .6-10.4 1.8 3 4.7 6.4 9.8 8.6 12.8 0 1.7-.2 21.1-.5 37 .3 0 .5-.1.5-.1v4.8s-.2 0-.5.1c0 1.9 0 3.8-.1 5.5.4-.1.6-.1.6-.1v4.8s-.2 0-.7.1c0 3.5-.1 5.7-.1 5.7s-5.1 1.1-15 1.1c-3.9 0-8.7-.2-14.2-.7v.3l9.9 9.9 2.3 18.3c6.1 1.3 12.4 2.1 18.9 2.2h.7c6.2 0 12.3-.6 18.2-1.8l2.6-18.6 9.9-9.5v-.7zM-4.4 183.6c3-3.4 5.9-8.8 6.2-18-3.9 5.1-6.1 11.5-6.2 18zM52 166c.2 9.2 3.1 14.6 6 18-.1-6.7-2.3-12.9-6-18zM76.4 177.5c-2 3.3-3.2 7-3.3 11 1.6-2.4 3-5.9 3.3-11zM-27.1 221.3c-8.8 0-13.5-.7-13.5-.7s.4-41.3.4-43.5c2.1-2.3 4.9-6.5 7.2-10.2-2.4-.9-4.9-1.5-7.6-1.5-2.9 0-5.8.4-8.4 1.5-.1 0-.1.1-.2.1 2.3 3.6 5 7.5 6.8 9.8v.4c0 1.3 0 5.4-.1 10.6 0 5.1-.1 11.3-.1 16.8h.2v3.7h-.3v4h.3v3.7s-.1 0-.3.1v4.3s-.9.2-2.7.3c2.3 2.9 4.8 5.8 7.5 8.4 3.3 3.3 6.7 6.4 10.4 9.1l1.7-11.7 5.5-5.2h-6.8zM27.7 109.8c-8 0-15 6.6-15 14.6s6.6 15 14.6 15S42 132.8 42 124.8c.3-8.4-6.2-15-14.3-15zM-40.6 136.1c-5.8 0-10.6 4.8-10.6 10.6s4.8 10.6 10.6 10.6 10.6-4.8 10.6-10.6-4.8-10.6-10.6-10.6zM95.7 137.2c-5.8 0-10.6 4.8-10.6 10.6 0 2.9 1.1 5.5 2.9 7.3 1.8 1.8 4.8 3.3 7.3 3.3 5.8 0 10.6-4.8 10.6-10.6 0-2.9-1.1-5.5-2.9-7.3-1.8-1.8-4.4-3.3-7.3-3.3z"/><path fill="#FFF" d="M27.7 73.7H27c-50.1 0-91 40.6-91.3 90.6-.1 3.6.1 7.1.5 10.6.8-1.4 1.7-2.8 2.8-4 .2-.3.5-.5.7-.8-.1-.9-.2-1.9-.3-2.9 0 0 4.7-4.4 8.8-4.8.2.3.4.7.6 1.1.3-.1.5-.2.8-.3 2.9-1.1 6.2-1.8 9.5-1.8h.4c3.5.1 6.8.8 9.8 2.1.1-.2.3-.5.4-.7 4.4.4 8.8 4.8 9.1 4.4-.2 1-.3 1.9-.4 2.8 4.4 4.8 7 11.1 7 18v3.8c.3.2.5.4.8.6 1.5 13.5 0 24.8-.4 28.1-.3 0-.6.1-.9.1l-7.6 7.2-1.7 12.6c8.6 5.9 18.1 10.3 28.2 12.9l-2-16.7-9.9-9.9v-1.3c-.6-.1-1.2-.1-1.8-.2-.4-4.4-1.8-19.4.4-37.3.5-.4 1.1-.8 1.8-1.3v-3.1c0-8 2.9-16.1 8.4-22.3.3-.4.7-.7 1-1.1-.1-1.7-.3-3.5-.6-5.5 0 0 6.2-5.5 11.7-6.2.5.8 1.1 1.8 1.7 2.8.2-.1.3-.2.5-.2 4-1.5 8-2.2 12.4-2.2h.4c4.2.1 8.3.9 12 2.4.5-.9 1-1.7 1.5-2.4 5.5.7 11.7 6.2 11.7 6.2-.3 1.7-.5 3.3-.6 4.8 6.1 6.4 9.8 15.1 9.8 24.4v3.4c.3.2.5.4.8.6 2.2 17.9.4 32.9-.4 37.3h-.7v1.8l-10.2 9.9-2.4 16.3c10.2-2.6 19.8-6.8 28.4-12.5L76 228.9l-7.2-7.2c-.3 0-.5-.1-.8-.1-.7-3.3-1.8-14.6 0-28.1.3-.2.7-.5 1.1-.8v-3.6c0-6.2 2.2-12.1 6.2-16.8.3-.4.7-.7 1-1.1-.1-.8-.2-1.7-.3-2.5 0 0 4.7-4.4 8.8-4.8.2.3.3.6.5 1 .2-.1.4-.2.6-.2 2.9-1.1 6.2-1.8 9.5-1.8h.4c3.4.1 6.7.8 9.6 2.1.2-.3.4-.7.6-1 4.4.4 8.8 4.8 9.1 4.4-.2 1.1-.4 2.1-.5 3.1 1.2 1.3 2.2 2.7 3.2 4.2.4-3.2.6-6.5.6-9.9.3-50.5-40.2-91.8-90.7-92.1zM-40.6 161c-8 0-14.2-6.6-14.2-14.2s6.6-14.2 14.2-14.2c8 0 14.2 6.6 14.2 14.2.1 8-6.5 14.2-14.2 14.2zm68-17.9c-10.2 0-18.6-8.4-18.3-18.6 0-10.2 8.4-18.3 18.3-18.3 10.2 0 18.6 8.4 18.6 18.6 0 9.9-8.4 18.3-18.6 18.3zm68.3 19c-4 0-7.3-1.5-10.2-4.4-2.6-2.6-4-6.2-4-10.2 0-7.7 6.6-14.2 14.2-14.2 4 0 7.3 1.5 10.2 4.4 2.6 2.6 4 6.2 4 10.2 0 8-6.5 14.2-14.2 14.2z"/><path fill="#E66446" d="M-40.6 132.5c-7.7 0-14.2 6.6-14.2 14.2s6.2 14.2 14.2 14.2c7.7 0 14.2-6.2 14.2-14.2.1-7.6-6.2-14.2-14.2-14.2zm0 24.8c-5.8 0-10.6-4.8-10.6-10.6s4.8-10.6 10.6-10.6 10.6 4.8 10.6 10.6-4.8 10.6-10.6 10.6z"/><path fill="#FFF" d="M-38.8 216v2.3c2.2.4 6.2.7 11.7.7 3.3 0 7.3 0 11-.4.1-.7.2-1.5.3-2.4-11.7 1-19.8.2-23-.2zM-15.3 208.6c-11.9 1-20.2.2-23.4-.2v4c3.2.4 11.4 1.2 23.3.3 0-1.3.1-2.7.1-4.1zM-29.3 164.6c-2.6 4-6.2 9.5-9.1 12.4 0 3.3-.2 16.7-.3 27.6 3.3.4 11.5 1.2 23.5.2 0-3.6-.1-7.6-.6-11.8-3.3-2.6-10.2-8.4-7.7-25.2-1.4-1-3.6-2.4-5.8-3.2zm5.5 18.7c0 4.4-3.3 7.3-6.9 7.3-1.8 0-3.7-.7-5.1-2.2-1.5-1.5-2.2-2.9-1.8-5.1 0-3.7 3.3-6.9 6.9-6.9 1.8 0 3.7.7 5.1 2.2 1.4 1.4 1.8 2.8 1.8 4.7zM-44.2 216c-1 .1-2.4.3-4.3.4.6.9 1.2 1.7 1.8 2.6 1-.1 1.8-.1 2.4-.3.1-.7.1-1.6.1-2.7zM-44.2 208.4c-1.8.2-4.8.5-9 .6.7 1.3 1.5 2.7 2.3 4 3-.1 5.2-.3 6.6-.5.1-1.4.1-2.7.1-4.1zM-43.9 177.4c-2.9-3.3-6.6-9.1-8.8-12.8-2.2.7-4.8 2.2-5.8 2.9 1.3 10-.6 16.2-3.1 20 1.5 6.1 3.7 12.1 6.5 17.7 5.2 0 8.9-.3 10.9-.6.2-10.8.3-23.9.3-27.2z"/><path fill="#FFF" d="M-30.7 178.5c-2.9 0-5.1 2.2-5.1 5.1 0 1.5.4 2.6 1.5 3.7s2.2 1.5 3.7 1.5c2.9 0 5.1-2.2 5.1-5.1 0-1.5-.4-2.6-1.5-3.7-1.2-.8-2.3-1.5-3.7-1.5zm2.9 6.2H-30v2.2h-1.8v-2.2h-1.8v-1.8h1.8v-2.2h1.8v2.2h2.2v1.8z"/><path fill="#E66446" d="M-30.7 176.3c-3.7 0-6.9 3.3-6.9 6.9-.4 2.2.4 3.7 1.8 5.1 1.5 1.5 3.3 2.2 5.1 2.2 3.7 0 6.9-2.9 6.9-7.3 0-1.8-.4-3.3-1.8-4.8-1.5-1.3-3.3-2.1-5.1-2.1zm0 12.5c-1.5 0-2.6-.4-3.7-1.5s-1.5-2.2-1.5-3.7c0-2.9 2.2-5.1 5.1-5.1 1.5 0 2.6.7 3.7 1.5 1.1 1.1 1.5 2.2 1.5 3.7 0 2.9-2.2 5.1-5.1 5.1z"/><path fill="#E66446" d="M-30 180.7h-1.8v2.2h-1.9v1.8h1.9v2.2h1.8v-2.2h2.2v-1.8H-30zM95.7 133.2c-7.7 0-14.2 6.6-14.2 14.2 0 4 1.5 7.7 4 10.2 2.9 2.9 6.2 4.4 10.2 4.4 7.7 0 14.2-6.2 14.2-14.2 0-4-1.5-7.7-4-10.2-2.9-2.9-6.2-4.4-10.2-4.4zm-.4 25.2c-2.6 0-5.5-1.5-7.3-3.3-1.8-1.8-2.9-4.4-2.9-7.3 0-5.8 4.7-10.6 10.6-10.6 2.9 0 5.5 1.5 7.3 3.3 1.8 1.8 2.9 4.4 2.9 7.3 0 5.9-4.7 10.6-10.6 10.6z"/><path fill="#FFF" d="M97.5 219.8c.6.1 1.4.2 2.3.3.6-.8 1.3-1.7 1.9-2.6-1.8-.1-3.2-.3-4.2-.4v2.7zM112.9 169.4c-1.5-1.1-3.7-2.6-5.8-3.3-2.2 3.7-6.2 9.5-9.1 12.4 0 3.3-.2 16.4-.3 27.3 1.9.3 5.6.6 10.8.7 2.9-5.6 5.2-11.6 6.9-17.8-2.4-3.9-4-9.9-2.5-19.3zm-.4 16.1c0 3.3-2.9 6.6-6.9 6.6s-6.9-3.3-6.9-6.9c0-3.7 3.3-6.9 6.9-6.9 1.8 0 3.7.7 5.1 2.2 1.4 1.3 2.2 2.8 1.8 5zM97.6 213.5c1.3.2 3.5.4 6.5.6l2.4-3.9c-4.2-.1-7.2-.4-8.8-.7-.1 1.4-.1 2.7-.1 4zM69 213.3c11.4 1.2 19.4.6 23.1.2v-4c-3.6.4-11.8 1-23.2-.2 0 1.5 0 2.8.1 4zM82.5 220.2c4.4 0 7.7 0 9.5-.4v-2.6c-3.6.4-11.6 1-22.8-.2.1.9.1 1.7.2 2.4 4.7.4 9.1.8 13.1.8zM69.7 193.9c-.5 4.2-.8 8.2-.9 11.8 11.5 1.2 19.6.6 23.2.2.1-10.9.3-24.1.3-27.3-2.9-3.3-6.6-9.1-8.8-12.8-2.2.7-4.4 2.2-5.8 2.9 2.3 16.8-4.7 22.6-8 25.2z"/><path fill="#FFF" d="M105.6 179.6c-2.9 0-5.1 2.2-5.1 5.1s2.2 5.1 5.1 5.1c2.9 0 5.1-2.2 5.1-5.1 0-1.5-.4-2.6-1.5-3.7-.7-.7-2.2-1-3.6-1.4zm3.2 6.2h-2.2v2.2h-1.8v-2.2h-2.2V184h2.2v-2.2h1.8v2.2h2.2v1.8z"/><path fill="#E66446" d="M105.6 178.2c-3.7 0-6.9 3.3-6.9 6.9 0 3.7 2.9 6.9 6.9 6.9s6.9-3.3 6.9-6.6c.4-2.2-.4-3.7-1.8-5.1-1.5-1.4-3.3-2.1-5.1-2.1zm0 11.6c-2.9 0-5.1-2.2-5.1-5.1s2.2-5.1 5.1-5.1c1.5.4 2.9.7 3.7 1.5 1.1 1.1 1.5 2.2 1.5 3.7-.1 2.9-2.3 5-5.2 5z"/><path fill="#E66446" d="M106.7 181.8h-1.9v2.2h-2.2v1.8h2.2v2.2h1.9v-2.2h2.1V184h-2.1zM27.4 106.2c-9.9 0-18.3 8-18.3 18.3-.4 10.2 8 18.6 18.3 18.6S46 134.7 46 124.8c0-10.2-8.4-18.6-18.6-18.6zm0 33.2c-8 0-14.6-6.9-14.6-15s6.9-14.6 15-14.6 14.6 6.6 14.2 15c0 8-6.6 14.6-14.6 14.6z"/><path fill="#E66446" d="M27.7 69.6H27c-51.9 0-94.6 42.4-95 94.3 0 25.6 9.5 49.3 27.4 67.6 17.9 18.3 41.7 28.1 66.9 28.5h.7c51.9 0 94.6-42.4 95-94.6.4-52.3-42-95.4-94.3-95.8zm-90.5 112.7c.6-2.1 1.4-4 2.5-5.8-.3 3.5-1 6.2-2 8.3-.2-.8-.3-1.7-.5-2.5zm1.2 5.3c2.5-3.9 4.4-10 3.1-20 1.1-.7 3.7-2.2 5.8-2.9 2.2 3.7 5.8 9.5 8.8 12.8 0 3.3-.1 16.4-.3 27.3-2 .2-5.8.6-10.9.6-2.8-5.8-5-11.7-6.5-17.8zm8.4 21.3c4.2-.1 7.2-.3 9-.6v4c-1.4.2-3.7.4-6.6.5-.8-1.2-1.6-2.5-2.4-3.9zm4.7 7.5c1.8-.1 3.2-.3 4.3-.4v2.7c-.6.1-1.4.2-2.4.3-.7-.9-1.3-1.7-1.9-2.6zm20.8 21.7c-3.6-2.7-7.1-5.8-10.4-9.1-2.7-2.7-5.2-5.5-7.5-8.4l2.7-.3V216c.2 0 .3-.1.3-.1v-3.7h-.3v-4h.3v-3.7h-.2c0-5.6.1-11.7.1-16.8 0-5.2.1-9.3.1-10.6v-.4c-1.8-2.3-4.4-6.2-6.8-9.8.1 0 .1-.1.2-.1 2.6-1.1 5.5-1.5 8.4-1.5 2.7.1 5.2.6 7.6 1.5-2.4 3.7-5.2 7.8-7.2 10.2 0 2.2-.4 43.5-.4 43.5s4.7.7 13.5.7c2 0 4.2 0 6.6-.1l-5.5 5.2-1.5 11.8zm12-45c.4 4.2.6 8.2.6 11.8-11.9 1-20.2.2-23.5-.2.1-11 .3-24.3.3-27.6 2.9-2.9 6.6-8.4 9.1-12.4 2.2.7 4.4 2.2 5.8 3.3-2.6 16.7 4.4 22.6 7.7 25.1zm-6.3-17.3c2.3 3.6 3.7 7.9 3.7 12.5-1.9-2.6-3.6-6.4-3.7-12.5zm-16.7 36.6v-4c3.2.4 11.5 1.2 23.4.2 0 1.4-.1 2.8-.2 4-11.8 1-20 .2-23.2-.2zm22.9 3.9c-.1.9-.2 1.7-.3 2.4-3.7.4-7.7.4-11 .4-5.5 0-9.5-.4-11.7-.7v-2.3c3.2.3 11.3 1.1 23 .2zm61 38.2c-5.9 1.2-12 1.8-18.2 1.8h-.7c-6.5-.1-12.8-.8-18.9-2.2l-2.3-18.3-9.9-9.9v-.3c5.5.4 10.3.7 14.2.7 9.9 0 15-1.1 15-1.1s0-2.2.1-5.7c.4-.1.7-.1.7-.1v-4.8s-.2 0-.6.1c0-1.7 0-3.5.1-5.5.3 0 .5-.1.5-.1v-4.8s-.2 0-.5.1c.2-15.9.5-35.3.5-37-2.2-3-5.6-8.1-8.6-12.8 3.4-1.2 7-1.8 10.4-1.8h.4c3.6.1 7 .8 10.2 1.9-3.1 4.7-6.7 9.9-9.4 12.7 0 2.9-.4 57.7-.4 57.7s6.6 1.1 17.9 1.1c3.5 0 7.6-.2 12.1-.5v.5l-9.9 9.5-2.7 18.8zm-42.7-99c2.2-1.5 5.8-4 9.1-4.8 2.9 5.1 8 13.2 12.1 17.5 0 3.9-.1 21.7-.3 36.4-4.2.5-15.6 1.4-32.5-.6.1-4.7.4-9.9 1.1-15.4 4.3-3.1 13.8-10.4 10.5-33.1zm-6.9 28.1c.2-6.5 2.3-12.9 6.2-18-.3 9.2-3.2 14.6-6.2 18zm27.7 25.9c0 1.9-.1 3.8-.1 5.5-4.3.5-15.6 1.3-32.3-.6-.1-1.7-.1-3.5-.1-5.5 16.8 1.9 28.2 1.1 32.5.6zm-.2 10.2c0 1.7-.1 3.1-.1 4.1-2.2.4-6.9.7-13.5.7-5.8 0-11.7-.4-17.9-1.1-.1-1.2-.3-2.6-.4-4.3 16.4 1.9 27.5 1.1 31.9.6zM61 189.5c.5 5.5.7 10.7.7 15.5-17.4 1.6-28.8.3-32.4-.3.1-14.7.3-32.5.3-36.4 4-4.4 9.5-12.4 12.4-17.5 3.7.7 7.3 3.7 8.8 5.1-3.7 22.6 5.8 30.3 10.2 33.6zM52 166c3.7 5.1 5.9 11.3 6 18-2.9-3.4-5.8-8.8-6-18zm-22.8 48.9v-5.5c3.5.5 15 1.9 32.4.3-.1 2-.1 3.8-.2 5.5-17.3 1.6-28.7.2-32.2-.3zM61 220c-.1 1.6-.3 3-.4 4.2-5.1.4-10.2.7-15.3.7-8 0-13.5-.7-16.1-1.1v-4.2c3.4.6 14.7 1.9 31.8.4zm20.3 18.4l-1.3-11-5.3-5.3c2.9.1 5.5.1 7.8.1 7.3 0 11.3-.7 11.3-.7v-4.7c.2 0 .3-.1.3-.1V213h-.3v-4h.3v-3.7h-.2c.1-11.9.2-26.2.2-27.4-2-2.3-4.8-6.4-7-10 .2-.1.3-.1.5-.2 2.6-1.1 5.5-1.5 8.4-1.5 2.6.1 5 .6 7.3 1.4-2.4 3.7-5.2 7.9-7.3 10.3 0 2.2-.4 43.5-.4 43.5l2.7.3c-4.9 6.4-10.6 12-17 16.7zm-3.5-69.7c1.5-.7 3.7-2.2 5.8-2.9 2.2 3.7 5.8 9.5 8.8 12.8 0 3.3-.2 16.5-.3 27.3-3.6.4-11.7 1-23.2-.2.1-3.6.3-7.6.9-11.8 3.2-2.6 10.2-8.4 8-25.2zm-4.7 19.8c.1-4 1.4-7.7 3.3-11-.3 5.1-1.7 8.6-3.3 11zm19 21v4c-3.6.4-11.7 1-23.1-.2-.1-1.2-.1-2.6-.1-4 11.5 1.2 19.6.6 23.2.2zm-.1 7.7v2.6c-1.8.4-5.1.4-9.5.4-4 0-8.4-.4-13.2-.7-.1-.7-.1-1.5-.2-2.4 11.3 1.1 19.3.5 22.9.1zm7.8 2.9c-.9-.1-1.7-.2-2.3-.3v-2.7c1 .1 2.4.3 4.2.4-.6.9-1.2 1.8-1.9 2.6zm4.3-6.1c-3-.2-5.2-.4-6.5-.6v-4c1.7.2 4.7.5 8.8.7-.7 1.3-1.5 2.6-2.3 3.9zm4.3-7.5c-5.1-.1-8.8-.4-10.8-.7.1-10.9.3-24 .3-27.3 2.9-2.9 6.9-8.8 9.1-12.4 2.2.7 4.4 2.2 5.8 3.3-1.4 9.5.1 15.4 2.4 19.3-1.6 6.2-3.9 12.2-6.8 17.8zm7.6-20.7c-1-2.4-1.7-5.5-1.7-9.5 1.1 1.5 1.9 3.2 2.6 5-.3 1.6-.6 3.1-.9 4.5zm-1.4-14.4c.1-1 .3-2 .5-3.1-.4.4-4.8-4-9.1-4.4-.2.3-.4.6-.6 1-3-1.2-6.2-2-9.6-2.1h-.4c-3.3 0-6.6.7-9.5 1.8-.2.1-.4.2-.6.2-.2-.3-.4-.7-.5-1-4 .4-8.8 4.8-8.8 4.8.1.9.2 1.7.3 2.5-.4.4-.7.7-1 1.1-4 4.8-6.2 10.6-6.2 16.8v3.6c-.4.3-.8.6-1.1.8-1.8 13.5-.7 24.8 0 28.1.3 0 .5.1.8.1l7.2 7.2 1.5 12.1c-8.6 5.7-18.1 10-28.4 12.5l2.4-16.3 10.2-9.9v-1.8h.7c.7-4.4 2.6-19.4.4-37.3-.2-.2-.5-.4-.8-.6v-3.4c0-9.4-3.7-18-9.8-24.4.1-1.5.4-3.1.6-4.8 0 0-6.2-5.5-11.7-6.2l-1.5 2.4c-3.7-1.5-7.8-2.4-12-2.4h-.4c-4.4 0-8.4.7-12.4 2.2-.2.1-.3.1-.5.2-.6-1-1.2-1.9-1.7-2.8-5.5.7-11.7 6.2-11.7 6.2.3 1.9.5 3.8.6 5.5-.3.4-.7.7-1 1.1-5.5 6.2-8.4 14.2-8.4 22.3v3.1c-.7.5-1.3 1-1.8 1.3-2.2 17.9-.7 32.9-.4 37.3.6.1 1.2.1 1.8.2v1.3l9.9 9.9 2 16.7c-10.1-2.6-19.6-7-28.2-12.9l1.7-12.6 7.6-7.2c.3 0 .6-.1.9-.1.4-3.3 1.8-14.6.4-28.1-.2-.2-.5-.4-.8-.6v-3.8c0-6.9-2.6-13.2-7-18 .1-.9.3-1.8.4-2.8-.4.4-4.7-4-9.1-4.4-.1.2-.3.4-.4.7-3-1.3-6.3-2.1-9.8-2.1h-.3c-3.3 0-6.6.7-9.5 1.8-.3.1-.6.2-.8.3-.2-.4-.4-.7-.6-1.1-4 .4-8.8 4.8-8.8 4.8.1 1 .3 2 .3 2.9-.2.2-.5.5-.7.8-1.1 1.3-2 2.6-2.8 4-.4-3.5-.5-7-.5-10.6.4-50 41.3-90.5 91.4-90.5h.7c50.4.4 91 41.7 90.6 92.1 0 3.3-.2 6.6-.6 9.9-.9-1.6-1.9-3-3.1-4.3z"/><path fill="#FFF" d="M42 150.8c-2.9 5.1-8.4 13.2-12.4 17.5 0 3.9-.1 21.7-.3 36.4 3.6.5 15 1.9 32.4.3 0-4.7-.2-9.9-.7-15.5-4.4-3.3-13.9-11-10.2-33.6-1.5-1.5-5.2-4.4-8.8-5.1zm-1.5 34.7c-5.1 0-8.8-4-8.8-9.1 0-4.8 4-8.8 8.8-8.8 5.1 0 8.8 4 8.8 9.1s-3.7 8.8-8.8 8.8zM61.6 209.7c-17.4 1.6-28.8.3-32.4-.3v5.5c3.5.5 14.8 1.9 32.2.3.1-1.7.2-3.6.2-5.5zM29.2 223.8c2.6.4 8 1.1 16.1 1.1 5.1 0 10.2-.4 15.3-.7.1-1.2.3-2.6.4-4.2-17.2 1.6-28.4.2-31.8-.3v4.1zM9.5 224.6c6.6 0 11.3-.4 13.5-.7 0-1 .1-2.4.1-4.1-4.4.5-15.5 1.3-32-.6.1 1.7.3 3.1.4 4.3 6.3.7 12.1 1.1 18 1.1zM-9.1 214.4c16.7 1.9 28 1.1 32.3.6 0-1.7.1-3.5.1-5.5-4.3.5-15.7 1.4-32.5-.6 0 1.9 0 3.8.1 5.5zM-9.2 204.1c16.9 1.9 28.3 1.1 32.5.6.2-14.7.3-32.5.3-36.4-4-4.4-9.1-12.4-12.1-17.5-3.3.7-6.9 3.3-9.1 4.8 3.3 22.7-6.2 30-10.6 33.2-.5 5.4-.9 10.6-1 15.3z"/><path fill="#FFF" d="M40.5 169.8c-4 0-6.9 3.3-7.3 6.9 0 4 3.3 6.9 6.9 7.3 4 0 6.9-3.3 6.9-6.9.8-4.1-2.5-7.3-6.5-7.3zm4 8h-2.9v3.3h-1.8v-3.3l-3.3-.4v-1.8l3.3.4v-3.3h1.8v3.3h2.9v1.8z"/><path fill="#E66446" d="M40.5 167.6c-4.7 0-8.8 4-8.8 8.8 0 5.1 3.7 9.1 8.8 9.1 5.1 0 8.8-3.7 8.8-8.8 0-5.1-3.7-9.1-8.8-9.1zm6.6 9.5c0 3.7-2.9 6.9-6.9 6.9-3.7-.4-6.9-3.3-6.9-7.3.4-3.7 3.3-6.9 7.3-6.9 3.9 0 7.2 3.2 6.5 7.3z"/><path fill="#E66446" d="M41.6 172.7h-1.8v3.3l-3.3-.4v1.8l3.3.4v3.3h1.8v-3.3h2.9V176h-2.9z"/></symbol><symbol viewBox="0 0 128 128" id="sprite-action-donate-large"><title>action-donate-large</title><circle fill="#FFF" cx="64" cy="64" r="62"/><path fill="#E46450" d="M32.002 99.001h61V102h-61zM66.002 96.001h27V99h-27zM32.002 96.001h20V99h-20z"/><path fill="#FFF" d="M55.699 90.1c0-4.819 2.156-9.138 5.546-12.063l-20.688-14.24-14.233 20.435L47.782 99h10.64a15.845 15.845 0 0 1-2.723-8.9z"/><path fill="#CCC" d="M39.61 68.234l18.817 12.949c2.869-4.242 7.725-7.035 13.221-7.035a15.85 15.85 0 0 1 9.031 2.816l26.299-38.216-35.035-24.11-48.227 70.075L44.474 99h6.616L28.933 83.75 39.61 68.234z"/><path fill="#FFF" d="M78.059 33.523c-2.861.104-4.799.959-6.484 3.32-2.03 2.844-1.979 6.035.234 8.758l7.455-10.439 1.598 2.371-7.09 9.926c.16.162.371.312.555.441.212.152.423.303.654.424l6.83-9.562 1.597 2.373-6.052 8.473c3.487 1.26 6.56.48 8.742-2.576 1.598-2.24 2.155-5.133 1.549-7.805l4.513 3.221c-.062 2.836-1.074 5.404-2.694 7.674-3.869 5.418-9.259 6.504-15.242 3.877l-1.688 2.357-1.596-2.371.931-1.301-1.167-.926-1.557 2.18-1.597-2.375 1.146-1.602c-4.143-4.697-4.444-10.35-.813-15.436 1.944-2.725 3.885-4.354 7.145-5.271l3.031 4.269z"/><path fill="#CCC" d="M81.027 99.001c2.205-2.321 3.57-5.453 3.57-8.901 0-7.141-5.81-12.951-12.949-12.951-7.141 0-12.949 5.812-12.949 12.951 0 3.448 1.364 6.58 3.57 8.901h18.758z"/><path fill="#999" d="M64 2c34.188 0 62 27.813 62 62 0 34.188-27.813 62.001-62 62.001S2 98.188 2 64C2 29.813 29.813 2 64 2m0-2C28.656 0 0 28.654 0 64c0 35.348 28.656 64.001 64 64.001S128 99.348 128 64c0-35.346-28.656-64-64-64z"/></symbol><symbol viewBox="0 0 68 68" id="sprite-action-donate"><title>action-donate</title><path fill="#FFF" d="M52.049 27.976l-2.102 2.1-12.422-12.429 2.101-2.1zM14.137 40.943l9.413 9.412h6.013l18.325-18.324-12.456-12.418-21.295 21.33zm22.869-6.156h1.324a5.6 5.6 0 0 1-1.717 4.045c-1.826 1.824-4.582 2.075-6.657.93L28.918 40.8l-.931-.931.931-.93-.143-.144-.143-.144-.931.931-1.038-.787 1.038-1.038a6.49 6.49 0 0 1-.645-2.756c0-1.432.645-2.863 1.718-3.937 1.038-1.181 2.362-1.718 3.937-1.718v1.324c-1.038 0-2.219.537-3.006 1.324-.93.787-1.324 1.825-1.324 3.006 0 .537.144 1.182.394 1.719l3.149-3.15.93.931-3.4 3.399.143.144.144.144 3.4-3.4.931.931-3.15 3.149c1.575.645 3.543.395 4.832-.93.859-.931 1.252-1.968 1.252-3.15z"/><path fill="#FFF" d="M34.25 1.324H34c-17.931 0-32.568 14.53-32.676 32.426-.143 8.768 3.257 17 9.413 23.155 6.156 6.263 14.244 9.663 23.013 9.806H34c17.931 0 32.568-14.529 32.676-32.425.142-18.073-14.352-32.854-32.426-32.962zm14.388 49.139v1.324h-36.47v-1.324h9.556l-9.413-9.412 27.343-27.344 14.244 14.244-22.511 22.512h17.251z"/><path fill="#E66446" d="M34.25 0H34C15.425 0 .143 15.175 0 33.75c0 9.019 3.4 17.536 9.806 24.05C16.213 64.35 24.73 67.857 33.75 68H34c18.574 0 33.857-15.175 34-33.75C68.143 15.568 52.969.143 34.25 0zM34 66.676h-.25c-8.769-.107-16.893-3.508-23.013-9.807-6.156-6.155-9.556-14.387-9.413-23.155C1.432 15.818 16.069 1.324 34 1.324h.25c18.039.143 32.568 14.924 32.425 32.962-.107 17.896-14.744 32.39-32.675 32.39z"/><path fill="#E66446" d="M39.619 13.743L12.276 41.086l9.448 9.377h-9.556v1.324h36.469v-1.324h-17.25l22.476-22.476-14.244-14.244zM29.562 50.355h-6.013l-9.413-9.412 21.295-21.33L47.85 32.031 29.562 50.355zm7.981-32.71l2.076-2.076 12.419 12.419-2.076 2.075-12.419-12.418z"/><path fill="#E66446" d="M30.851 38.832L34 35.682l-.931-.93-3.4 3.399-.143-.144-.143-.143 3.4-3.4-.931-.93-3.149 3.148a4.289 4.289 0 0 1-.394-1.717c0-1.182.394-2.219 1.324-3.007.787-.787 1.968-1.324 3.006-1.324V29.31c-1.575 0-2.863.537-3.937 1.718-1.038 1.038-1.718 2.47-1.718 3.938 0 .93.25 1.968.644 2.756l-1.038 1.037 1.038.787.931-.93.143.143.143.144-.93.931.93.93 1.038-1.037c2.076 1.181 4.832.93 6.657-.931 1.038-1.038 1.718-2.47 1.718-4.044h-1.324c0 1.181-.394 2.219-1.324 3.148-1.216 1.325-3.185 1.576-4.759.932z"/></symbol><symbol viewBox="-68 70 190 190" id="sprite-action-follow"><title>action-follow</title><path fill="#FFF" d="M17.1 205.6c.4-.7 0-1.8-1.1-2.2-.4-.4-.7-.4-1.1-1.1-.4-.4-.4-1.1 0-1.5l1.5-3.7c.4-.4.4-.7 1.1-1.1.4-.4 1.1-.4 1.5 0 .7.4 1.8 0 2.2-1.1v-1.5c0-.4-.4-.7-1.1-1.1-.4-.4-.7-.4-1.1-1.1-.4-.4-.4-1.1 0-1.5l1.5-3.7c.4-1.1 1.5-1.5 2.6-1.1.7.4 1.8 0 2.2-1.1v-1.5c0-.4-.4-.7-1.1-1.1-.4-.4-.7-.4-1.1-1.1-.3.4-.8.7-1.5.7-1.1 0-1.8.7-1.8 1.8 0 .4-.7 1.1-1.8 1.1h-80.3c3.5 16.9 12 32.5 24.4 44.9 17.2 17.5 39.8 27 64.3 27.4h.6c22 0 42.3-7.9 58.1-20.9l-66.9-27.7c-.7 0-1.4-1.1-1.1-1.8zM102.3 181.4h-.7c-.7 0-1.1-.7-1.5-1.1-.7-2.2-2.6-4-4.8-4.8-4.4-1.8-9.1.4-11 4.4-.4.7-.4 1.5-.4 1.8 0 .7-.4 1.1-1.1 1.5-.4.4-1.1.4-1.5 0-6.9-3.3-12.4-9.1-15.3-16.1-.4.4-.7 1.1-.7 1.5-1.1 2.6-.7 5.5.7 7.7.4.7.4 1.5 0 2.2s-1.5.7-2.2.4c-.7-.4-1.5-.7-1.8-1.1-.4 2.9 1.1 5.8 3.7 7.7.7.4 1.1 1.5.7 2.2-.4.7-1.1 1.5-1.8 1.1-.7 0-1.5-.4-2.2-.4.7 2.6 2.2 4.4 4.8 5.5.7.4 1.1 1.1 1.1 1.8s-.7 1.5-1.5 1.5c-2.9 1.1-6.2 1.1-9.5.4 2.2 1.8 4.8 3.3 7.3 4.4 3.7 1.5 7.3 2.2 10.6 2.2 12.4 0 21.6-8.8 24.8-16.8l.4-1.1c.4-.7.7-1.1 1.1-1.1h.7c-.7-.4-1.5-1.1-1.5-1.8.1-.9.8-1.6 1.6-2z"/><path fill="#FFF" d="M-30 152.6h-7.3c-1.1 0-1.8-.7-1.8-1.8v-9.1c0-1.1.7-1.8 1.8-1.8h7.3v-7.3c0-9.5 4.8-14.2 14.2-14.2h9.1c1.1 0 1.8.7 1.8 1.8v9.1c0 1.1-.7 1.8-1.8 1.8h-4c-1.8 0-3.3 1.8-3.3 3.3v5.1h10.6c.4 0 1.1.4 1.5.7.4.4.4 1.1.4 1.5l-1.5 9.1c0 .7-.7 1.5-1.8 1.5h-9.1v28.1h30.7c.7-1.5 1.8-2.6 3.3-3.3V176c-2.2-.7-3.7-2.9-3.7-5.1s1.5-4.4 3.7-5.1v-.8c-2.2-.7-3.7-2.9-3.7-5.1 0-2.2 1.5-4.4 3.7-5.1v-1.1c-2.2-.7-3.7-2.9-3.7-5.1 0-2.2 1.5-4.4 3.7-5.1v-1.1c-2.2-.7-3.7-2.9-3.7-5.1s1.5-4.4 3.7-5.1V131c-2.2-.7-3.7-2.9-3.7-5.1 0-2.2 1.5-4.4 3.7-5.1v-1.1c-2.2-.7-3.7-2.9-3.7-5.1 0-2.2 1.5-4.4 3.7-5.1v-1.1c-1.5-.4-2.6-1.5-3.3-2.9h-59c-13.7 15.8-22 36.4-22.1 58.8-.1 5.3.3 10.6 1.1 15.7H-30v-27.4z"/><path fill="#FFF" d="M19.7 104c0 .7.7 1.5 1.8 1.5s1.8.7 1.8 1.8v4c0 1.1-.7 1.8-1.8 1.8s-1.8.7-1.8 1.8.7 1.8 1.8 1.8 1.8.7 1.8 1.8v4c0 1.1-.7 1.8-1.8 1.8s-1.8.7-1.8 1.8.7 1.8 1.8 1.8 1.8.7 1.8 1.8v4c0 1.1-.7 1.8-1.8 1.8s-1.8.7-1.8 1.8.7 1.8 1.8 1.8 1.8.7 1.8 1.8v4c0 1.1-.7 1.8-1.8 1.8s-1.8.7-1.8 1.8.7 1.8 1.8 1.8 1.8.7 1.8 1.8v4c0 1.1-.7 1.8-1.8 1.8s-1.8.7-1.8 1.8.7 1.8 1.8 1.8 1.8.7 1.8 1.8v4c0 1.1-.7 1.8-1.8 1.8s-1.8.7-1.8 1.8.7 1.8 1.8 1.8 1.8.7 1.8 1.8v2.7l1.1-2.7c.4-.4.4-.7 1.1-1.1.4-.4 1.1-.4 1.5 0 .7.4 1.8 0 2.2-1.1.4-.7 0-1.8-1.1-2.2-.4-.4-.7-.4-1.1-1.1-.4-.4-.4-1.1 0-1.5l1.5-3.7c.4-.4.4-.7 1.1-1.1.4-.4 1.1-.4 1.5 0 .7.4 1.8 0 2.2-1.1.4-.7 0-1.8-1.1-2.2-1.1-.4-1.5-1.5-1.1-2.6l1.5-3.7c.4-1.1 1.5-1.5 2.6-1.1.7.4 1.8 0 2.2-1.1.4-.7 0-1.8-1.1-2.2-1.1-.4-1.5-1.5-1.1-2.6l1.5-3.7c.4-1.1 1.5-1.5 2.6-1.1.7.4 1.8 0 2.2-1.1.4-.7 0-1.8-1.1-2.2-1.1-.4-1.5-1.5-1.1-2.6l1.5-3.7c.4-.4.4-.7 1.1-1.1.7-.4 1.1-.4 1.5 0 .7.4 1.8 0 2.2-1.1.4-1.1 1.5-1.5 2.6-1.1l70.3 29.1c-3.3-47.2-42.3-84.7-90.4-85H27c-26 0-49.6 11-66.2 28.5h57.1c1.1 1.2 1.8 1.9 1.8 3z"/><path fill="#FFF" d="M118.3 164.1l-69-28.7c-1.1 1.1-2.6 1.8-4.4 1.8l-.4 1.1c1.5 1.5 2.2 4 1.5 6.2-.7 2.2-2.9 3.3-5.1 3.3l-.4 1.1c1.5 1.5 2.2 4 1.5 6.2-.7 2.2-2.9 3.3-5.1 3.3l-.4 1.1c1.5 1.5 2.2 4 1.5 6.2-.7 2.2-2.9 3.3-5.1 3.3l-.4 1.1c1.5 1.5 2.2 4 1.5 6.2-.7 2.2-2.9 3.7-5.1 3.3l-.4 1.1c.7.4 1.1 1.1 1.5 1.8.7 1.5.7 2.9 0 4-.7 2.2-2.9 3.3-5.1 3.3l-.4 1.1c1.5 1.5 2.2 4 1.5 6.2-.7 2.2-2.9 3.7-5.1 3.3l-.4 1.1c-.4 0 .4 1.5.4 2.9l67.6 28.1c18.2-16.6 29.7-40.4 29.9-66.8 0-.5-.1-1.1-.1-1.6zm-8 19.9c.4.7 0 1.5-.7 2.2-1.8 1.5-4 2.2-6.2 2.9v.4c-4 8.8-14.2 18.6-28.1 18.6-4 0-8-.7-12.1-2.6-5.5-2.2-10.2-5.8-13.5-11-.4-.7-.4-1.8 0-2.2.7-.7 1.5-.7 2.2-.4.7.4 1.5.7 1.8 1.1 2.6 1.1 5.1 1.5 8 1.5-2.2-2.6-3.7-5.8-3.3-9.1 0-.7.4-1.1 1.1-1.5-1.5-2.9-1.5-6.6-.4-9.9.4-.7.7-1.1 1.5-1.1h.4c0-1.8 0-3.7.7-5.5.7-1.8 2.2-3.7 4-5.1.4-.4 1.1-.4 1.8-.4.7.4 1.1.7 1.1 1.1 1.8 6.6 6.6 12.4 12.4 15.7v-.4c1.8-4.4 6.2-7.3 11-7.3 1.5 0 3.3.4 4.8 1.1 2.6 1.1 5.1 3.3 6.2 5.8 1.8.4 3.7.4 5.5 0 .7 0 1.5.4 1.8 1.1s.4 1.5-.4 2.2c-.4.4-.7.7-1.1 1.5.8.2 1.1.9 1.5 1.3zM-5.5 143.8h-10.2c-1.1 0-1.8-.7-1.8-1.8v-7c0-3.7 3.3-6.9 6.9-6.9h2.2v-5.5h-7.3c-7.3 0-10.6 2.9-10.6 10.6v9.1c0 1.1-.7 1.8-1.8 1.8h-7.3v5.5h7.3c1.1 0 1.8.7 1.8 1.8v28.9h8.8v-29.2c0-1.1.7-1.8 1.8-1.8h9.1l1.1-5.5z"/><path fill="#E66446" d="M110.3 179.3c-.4-.7-1.1-1.1-1.8-1.1-1.8.4-3.7.4-5.5 0-1.1-2.6-3.7-4.8-6.2-5.8-1.5-.7-3.3-1.1-4.8-1.1-4.8 0-9.1 2.9-11 7.3v.4c-5.8-3.3-10.6-9.1-12.4-15.7 0-.4-.4-.7-1.1-1.1-.7 0-1.5 0-1.8.4-1.8 1.5-3.3 3.3-4 5.1-.7 1.8-.7 3.7-.7 5.5h-.4c-.7 0-1.1.4-1.5 1.1-1.1 3.3-1.1 6.9.4 9.9-.7.4-1.1.7-1.1 1.5-.4 3.3 1.1 6.6 3.3 9.1-2.9 0-5.5-.4-8-1.5-.4-.4-1.1-.7-1.8-1.1-.7-.4-1.5-.4-2.2.4-.4.4-.4 1.5 0 2.2 3.3 5.1 8 8.8 13.5 11 4 1.8 8 2.6 12.1 2.6 13.9 0 24.1-9.9 28.1-18.6v-.4c2.2-.7 4.4-1.5 6.2-2.9.7-.7 1.1-1.5.7-2.2-.4-.4-.7-1.1-1.5-1.1.4-.7.7-1.1 1.1-1.5.8-1 .8-1.7.4-2.4zm-8 5.8h-.7c-.3 0-.7.4-1.1 1.1l-.4 1.1c-3.3 8-12.4 16.8-24.8 16.8-3.3 0-6.9-.7-10.6-2.2-2.6-1.1-5.1-2.6-7.3-4.4 3.3.7 6.6.7 9.5-.4.7 0 1.5-.7 1.5-1.5 0-.7-.4-1.5-1.1-1.8-2.6-1.1-4-2.9-4.8-5.5.7 0 1.5.4 2.2.4.7.4 1.5-.4 1.8-1.1.4-.7 0-1.8-.7-2.2-2.6-1.8-4-4.7-3.7-7.7.4.4 1.1.7 1.8 1.1.7.4 1.8.4 2.2-.4s.4-1.5 0-2.2c-1.5-2.2-1.8-5.1-.7-7.7 0-.4.4-1.1.7-1.5 2.9 6.9 8.4 12.8 15.3 16.1.4.4 1.1.4 1.5 0 .7-.4 1.1-.7 1.1-1.5 0-.4 0-1.1.4-1.8 1.8-4 6.6-6.2 11-4.4 2.2.7 4 2.6 4.8 4.8.4.4.7 1.1 1.5 1.1h.7c-.7.4-1.5 1.1-1.5 1.8-.1.9.6 1.6 1.4 2z"/><path fill="#E66446" d="M20.4 201.5l.4-1.1c2.2.4 4.4-1.1 5.1-3.3.7-2.2 0-4.8-1.5-6.2l.4-1.1c2.2 0 4.4-1.1 5.1-3.3.7-1.1.7-2.6 0-4-.4-.7-.7-1.5-1.5-1.8l.4-1.1c2.2.4 4.4-1.1 5.1-3.3.7-2.2 0-4.8-1.5-6.2l.4-1.1c2.2 0 4.4-1.1 5.1-3.3.7-2.2 0-4.8-1.5-6.2l.4-1.1c2.2 0 4.4-1.1 5.1-3.3.7-2.2 0-4.8-1.5-6.2l.4-1.1c2.2 0 4.4-1.1 5.1-3.3.7-2.2 0-4.7-1.5-6.2l.4-1.1c1.8 0 3.3-.7 4.4-1.8l69 28.7c0-1.8-.1-3.6-.2-5.4l-70.3-29.1c-1.1-.4-2.2 0-2.6 1.1-.4 1.1-1.5 1.5-2.2 1.1-.4-.4-.7-.4-1.5 0-.7.4-.7.7-1.1 1.1l-1.5 3.7c-.4 1.1 0 2.2 1.1 2.6 1.1.4 1.5 1.5 1.1 2.2-.4 1.1-1.5 1.5-2.2 1.1-1.1-.4-2.2 0-2.6 1.1l-1.5 3.7c-.4 1.1 0 2.2 1.1 2.6 1.1.4 1.5 1.5 1.1 2.2-.4 1.1-1.5 1.5-2.2 1.1-1.1-.4-2.2 0-2.6 1.1l-1.5 3.7c-.4 1.1 0 2.2 1.1 2.6 1.1.4 1.5 1.5 1.1 2.2-.4 1.1-1.5 1.5-2.2 1.1-.4-.4-1.1-.4-1.5 0-.7.4-.7.7-1.1 1.1l-1.5 3.7c-.4.4-.4 1.1 0 1.5.4.7.7.7 1.1 1.1 1.1.4 1.5 1.5 1.1 2.2-.4 1.1-1.5 1.5-2.2 1.1-.4-.4-1.1-.4-1.5 0-.7.4-.7.7-1.1 1.1l-1.1 2.7v-2.7c0-1.1-.7-1.8-1.8-1.8s-1.8-.7-1.8-1.8.7-1.8 1.8-1.8 1.8-.7 1.8-1.8v-4c0-1.1-.7-1.8-1.8-1.8s-1.8-.7-1.8-1.8.7-1.8 1.8-1.8 1.8-.7 1.8-1.8v-4c0-1.1-.7-1.8-1.8-1.8s-1.8-.7-1.8-1.8.7-1.8 1.8-1.8 1.8-.7 1.8-1.8v-4c0-1.1-.7-1.8-1.8-1.8s-1.8-.7-1.8-1.8.7-1.8 1.8-1.8 1.8-.7 1.8-1.8v-4c0-1.1-.7-1.8-1.8-1.8s-1.8-.7-1.8-1.8.7-1.8 1.8-1.8 1.8-.7 1.8-1.8v-4c0-1.1-.7-1.8-1.8-1.8s-1.8-.7-1.8-1.8.7-1.8 1.8-1.8 1.8-.7 1.8-1.8v-4c0-1.1-.7-1.8-1.8-1.8s-1.8-.7-1.8-1.5c0-1.1-.7-1.8-1.8-1.8h-57.1l-3 3.3h59c.7 1.5 1.8 2.6 3.3 2.9v1.1c-2.2.7-3.7 2.9-3.7 5.1 0 2.2 1.5 4.4 3.7 5.1v1.1c-2.2.7-3.7 2.9-3.7 5.1 0 2.2 1.5 4.4 3.7 5.1v1.1c-2.2.7-3.7 2.9-3.7 5.1s1.5 4.4 3.7 5.1v1.1c-2.2.7-3.7 2.9-3.7 5.1 0 2.2 1.5 4.4 3.7 5.1v1.1c-2.2.7-3.7 2.9-3.7 5.1 0 2.2 1.5 4.4 3.7 5.1v.7c-2.2.7-3.7 2.9-3.7 5.1s1.5 4.4 3.7 5.1v1.1c-1.5.7-2.6 1.8-3.3 3.3h-30.7v-28.1h9.1c1.1 0 1.8-.7 1.8-1.5l1.5-9.1c0-.4 0-1.1-.4-1.5-.4-.4-1.1-.7-1.5-.7h-10.6v-5.1c0-1.5 1.5-3.3 3.3-3.3h4c1.1 0 1.8-.7 1.8-1.8v-9.1c0-1.1-.7-1.8-1.8-1.8h-9.1c-9.5 0-14.2 4.8-14.2 14.2v7.3h-7.3c-1.1 0-1.8.7-1.8 1.8v9.1c0 1.1.7 1.8 1.8 1.8h7.3V180h-33.2c.2 1.3.5 2.7.7 4h80.3c1.1 0 1.8-.7 1.8-1.1 0-1.1.7-1.8 1.8-1.8.6 0 1.2-.3 1.5-.7.4.7.7.7 1.1 1.1.7.4 1.1.7 1.1 1.1v1.5c-.4 1.1-1.5 1.5-2.2 1.1-1.1-.4-2.2 0-2.6 1.1l-1.5 3.7c-.4.4-.4 1.1 0 1.5.4.7.7.7 1.1 1.1.7.4 1.1.7 1.1 1.1v1.5c-.4 1.1-1.5 1.5-2.2 1.1-.4-.4-1.1-.4-1.5 0-.7.4-.7.7-1.1 1.1l-1.5 3.7c-.4.4-.4 1.1 0 1.5.4.7.7.7 1.1 1.1 1.1.4 1.5 1.5 1.1 2.2-.4.7.4 1.8 1.1 2.2l66.9 27.7c1.1-.9 2.2-1.9 3.3-2.9l-67.6-28.1c.7-1.8 0-3.3.3-3.3zm-38-50.4v29.2h-8.8v-28.9c0-1.1-.7-1.8-1.8-1.8h-7.3v-5.5h7.3c1.1 0 1.8-.7 1.8-1.8v-9.1c0-7.7 3.3-10.6 10.6-10.6h7.3v5.5h-2.2c-3.7 0-6.9 3.3-6.9 6.9v6.9c0 1.1.7 1.8 1.8 1.8h10.2l-1.1 5.5h-9.1c-1 .1-1.8.8-1.8 1.9z"/><path fill="#E66446" d="M27.7 70H27c-51.9 0-94.6 42.4-95 94.3 0 25.2 9.5 49 27.4 67.2 17.5 18.3 41.7 28.1 66.9 28.5h.7c51.9 0 94.6-42.4 95-94.3.4-52.2-42-95.3-94.3-95.7zm60.7 162.6c-1.1 1-2.2 1.9-3.3 2.9-15.8 13-36.1 20.8-58.1 20.8h-.7c-24.5-.3-47.2-9.8-64.3-27.4-12.5-12.5-20.9-28-24.4-44.9-.3-1.3-.5-2.7-.7-4-.8-5.1-1.2-10.4-1.1-15.7.2-22.5 8.5-43 22.1-58.8l3-3.3C-22.6 84.6 1 73.7 27 73.7h.7c48.1.3 87.1 37.9 90.4 85 .1 1.8.2 3.6.2 5.4v1.6c-.1 26.5-11.7 50.3-29.9 66.9z"/></symbol><symbol viewBox="137 70 190.2 190.1" id="sprite-action-godparenthood"><title>action-godparenthood</title><path fill="#FFF" d="M318.6 183.3c-.4 0-2.2 1.1-4.8 3.3-2.2 2.2-3.3 4.4-3.3 5.1 1.5 1.1 1.1 2.6.7 2.9-.4.4-1.1 1.8-2.9 1.8 0 .4-1.1 2.2-1.1 5.5s.7 5.5 1.5 5.8c1.8 0 2.6 1.1 2.9 1.5.1.1.1.2.1.3 1.6-2.8 3-5.7 4.3-8.7.2-2.7 1.1-5.1 2.7-7.1 1-2.9 1.8-5.9 2.5-9-.6 0-1.6-.2-2.6-1.4zM161.8 109.5v-2.9c-.7.9-1.5 1.8-2.2 2.7v.2h2.2zM162.6 157h1.8l-1.8 9.5c7.7.4 13.9.7 17.9 1.5v-26l-17.2-28.9h-2.9v3.7h-3.7v-3.5c-.8 1.1-1.5 2.2-2.2 3.3v31.2c4.4.8 7.3 4.4 8.1 9.2zM263.4 230v-42c0-17.2-13.9-31.4-31.1-31.4h-.3c-17.2.4-31.1 14.2-31.1 31.4v42l9.9 9.9 1.8 14.4c6.2 1.3 12.7 2.1 19.3 2.1 6.7 0 13.3-.7 19.6-2.1l1.9-14.3 10-10z"/><path fill="#FFF" d="M290.8 156.2l-3.7-25.9c-.7-4.8-5.1-9.1-10.2-9.1H251v-3.7h25.9c6.6 0 12.8 5.5 13.9 12.1l2.9 22.7h9.1v-10.6c0-1.1.4-1.8 1.1-2.6.7-.7 1.5-1.1 2.6-1.1h1.8v3.7h-1.8v10.9h10.2v-5.8h3.7v5.8h2.1c-6.1-44.6-44.3-78.9-90.5-78.9-27.8 0-52.8 12.5-69.5 32.2h3v3.7h25.2v3.7h-7.3v26.3h3.3v3.7h-3.3V169c2.2.7 2.9 1.8 2.9 2.9v47.5l-.7.4c-2.2 3.2-13.9 4.1-23.2 4.3 11.8 13.9 27.7 24.2 45.9 29.1l-1.5-11.5-10.2-9.9v-43.5c0-19 15.7-35.1 34.7-35.1h.4c19.4.4 34.7 16.1 34.7 35.1v43.5l-10.2 9.9-1.5 11.8c22.1-5.6 41-19.3 53.3-37.8-1.2-1.9-1.7-3.8-1-5.1-.4 0-.7-.4-1.1-.7-1.8-1.8-2.6-5.5-2.6-8.4v-1.8h-18.7c-1.1 1.8-2.2 2.9-3.7 2.9 2.6 2.9-.7 9.1-5.1 13.5-1.1 1.1-2.6 2.2-3.7 3.3l-2.2-2.9c1.1-.7 2.2-1.8 3.3-2.6 4-4 5.1-7.7 4.8-8.4-1.8-1.8-1.5-3.3-1.1-4 .4-.7 1.1-1.8 3.7-2.2.7-.4 2.2-3.7 2.2-9.5s-1.8-9.1-2.6-9.5c-2.6 0-3.3-1.1-3.7-1.8-.4-.7-.7-2.2 1.1-4 .4-.7-.7-4-5.1-8.4-4-4-7.7-5.1-8.4-4.8-1.8 1.8-3.3 1.5-4 1.1-.7-.4-1.8-1.1-2.2-3.7-.4-.7-3.3-2.2-8.8-2.2h-.7v-3.7h.7c6.2 0 12.1 1.8 12.4 5.8.7-.7 2.9-1.8 6.2 0 2.2 1.1 4.8 2.9 6.9 5.1 2.2 2.2 4 4.8 5.1 6.9 1.5 3.3 1.1 5.5 0 6.2 4 .4 5.8 6.9 5.8 13.2 0 2.2-.4 4.4-.7 6.6h17.9c.7-1.8 1.5-3.3 2.9-3.7 0-.4-.4-.7-.4-1.5 0-2.6 2.2-5.5 4-7.7 2.9-2.9 6.6-5.1 9.1-4 .6-1.4 2.1-2.4 4-2.9.5-3.9.8-8 .8-12 0-3-.1-5.9-.4-8.8h-31.9v.2zm-59.9-11.7c-10.2 0-18.6-8.4-18.6-18.6s8.4-18.6 18.6-18.6c10.2 0 18.6 8.4 18.6 18.6-.3 10.2-8.4 18.6-18.6 18.6zm50.4 5.2c-1.1 1.1-2.6 1.8-4 1.8h-24.1c-1.5 0-2.9-.7-4-1.8s-1.8-2.6-1.8-4v-6.9h3.6v6.9c0 .7.4 1.1.7 1.5.4.4 1.1.7 1.5.7h24.1c.4 0 1.1-.4 1.5-.7.4-.4.4-.7.4-1.5l-1.2-11.4c0-1.1-1.5-2.2-2.6-2.2h-22.2v-3.7h22.3c2.9 0 5.8 2.6 6.2 5.5l1.1 11.3c0 1.5-.4 3-1.5 4.5zm38.4 21.1h-13.9v-3.7h13.9v3.7zm0-7.3h-13.9v-3.7h13.9v3.7zM141 157h1.5c.7-4.8 4-8.4 8.4-9.1V123c-6.5 12.6-10.2 26.9-10.2 42v2.1c.6-.1 1.1-.2 1.8-.2L141 157z"/><path fill="#FFF" d="M230.9 110.9c-8 0-15 6.6-15 15 0 8 6.6 15 15 15 8 0 15-6.6 15-15-.4-8-7-15-15-15zM161.1 174.5c9.1 0 15.7-1.1 19-1.8v-.7c-3.3-1.1-9.5-1.8-18.3-1.8l-.7 4.3zM145.8 157h12.8c-.4-2.6-1.8-4.8-4.4-5.5v.7h-3.7v-.7c-2.5.7-4 2.9-4.7 5.5zM143.2 170.5c-.9.1-1.7.2-2.4.3 0 .8.1 1.6.2 2.3.8.1 1.6.2 2.6.3l-.4-2.9zM147.2 173.8c2.9.4 6.6.4 10.2.4l2.2-13.5H145l2.2 13.1zM167.3 113.1l12.8 21.9v-21.9zM183.4 175.6c-5.8 2.2-17.5 2.6-25.2 2.6-4.8 0-11.2-.1-16.7-.8 2.2 16.1 8.6 30.9 18 43.2 14.2-.1 22.1-1.8 23.9-2.5v-42.5z"/><path fill="#E66446" d="M305.8 159.9h13.9v3.7h-13.9zM275.5 128.5h-22.3v3.7h22.3c1.1 0 2.6 1.1 2.6 2.2l1.1 11.3c0 .7 0 1.1-.4 1.5-.4.4-1.1.7-1.5.7h-24.1c-.4 0-1.1-.4-1.5-.7-.4-.4-.7-.7-.7-1.5v-6.9h-3.7v6.9c0 1.5.7 2.9 1.8 4s2.6 1.8 4 1.8h24.1c1.5 0 2.9-.7 4-1.8 1.1-1.5 1.5-2.9 1.5-4.4l-1.1-11.3c-.3-3-3.2-5.5-6.1-5.5zM305.8 167.2h13.9v3.7h-13.9zM230.9 107.3c-10.2 0-18.6 8.4-18.6 18.6s8.4 18.6 18.6 18.6c10.2 0 18.3-8.4 18.6-18.6 0-10.2-8.4-18.6-18.6-18.6zm0 33.6c-8.4 0-15-6.9-15-15 0-8.4 6.9-15 15-15s14.6 6.9 15 15c0 8.4-7 15-15 15z"/><path fill="#E66446" d="M326.7 157c-.1-1.3-.2-2.6-.4-3.9-6-46.7-46.1-83.1-94.3-83.1-29.9 0-56.7 14-74.2 35.8l-1.8 2.4c-.3.4-.6.9-.9 1.3-1.5 2-2.9 4.1-4.2 6.2C142.1 130.1 137 147 137 165v2.7c0 1.2.1 2.4.2 3.7 0 .4.1.8.1 1.2.1 1.4.3 2.8.4 4.3 2 16.2 8.2 31.1 17.3 43.7.9 1.2 1.8 2.5 2.8 3.7 12.8 16 30.6 27.8 51 32.9 1.4.4 2.9.7 4.4 1 6.1 1.2 12.4 1.9 18.9 1.9 6.6 0 13-.7 19.1-2 1-.2 2-.4 3-.7 23.1-5.6 43-19.6 56.1-38.6.7-1.1 1.5-2.2 2.2-3.3 1.7-2.8 3.3-5.6 4.8-8.6.9-1.8 1.7-3.6 2.5-5.5s1.6-3.9 2.3-5.9c.6-1.9 1.2-3.8 1.7-5.7.8-3.1 1.5-6.3 2.1-9.5l.6-3.9c.5-3.7.7-7.5.7-11.4-.2-2.7-.3-5.4-.5-8zm-164.9-50.5v2.9h-2.2v-.2c.8-.9 1.5-1.8 2.2-2.7zm-5.1 6.8v3.5h3.7v-3.7h2.9l17.2 28.9v25.9c-4-.7-10.2-1.1-17.9-1.5l1.8-9.5h-1.8c-.7-4.8-3.7-8.4-8-9.1v-31.2c.6-1.1 1.4-2.2 2.1-3.3zm10.6-.2h12.8V135l-12.8-21.9zm12.8 58.8v.7c-3.3.7-9.9 1.8-19 1.8l.7-4.4c8.8.1 15 .8 18.3 1.9zm-25.9-19.7v-.7c2.6.7 4 2.9 4.4 5.5h-12.8c.7-2.6 2.2-4.8 4.8-5.5v.7h3.6zm5.5 8.4l-2.2 13.5c-3.7 0-7.3 0-10.2-.4l-2.2-13.2 14.6.1zm-19 4.4c0-15.1 3.7-29.4 10.2-42v24.8c-4.4.7-7.7 4.4-8.4 9.1H141l1.5 9.9c-.7.1-1.2.2-1.8.2v-2zm.1 5.8c.7-.1 1.5-.2 2.4-.3l.4 2.9c-.9-.1-1.8-.2-2.6-.3-.1-.8-.1-1.6-.2-2.3zm.7 6.6c5.5.6 11.9.8 16.7.8 7.7 0 19.4-.4 25.2-2.6V218c-1.8.7-9.8 2.4-23.9 2.5-9.4-12.3-15.8-27-18-43.1zm90.5 78.9c-6.6 0-13.1-.7-19.3-2.1l-1.8-14.4-9.9-9.9v-42c0-17.2 13.9-31.1 31.1-31.4h.4c17.2 0 31.1 14.2 31.1 31.4v42l-9.9 9.9-1.9 14.3c-6.5 1.5-13.1 2.2-19.8 2.2zm86.8-62.7c-1.6 2-2.5 4.5-2.7 7.1-1.3 3-2.7 5.9-4.3 8.7 0-.1-.1-.2-.1-.3-.4-.4-1.1-1.5-2.9-1.5-.7-.4-1.5-2.6-1.5-5.8s1.1-5.1 1.1-5.5c1.8 0 2.6-1.5 2.9-1.8.4-.4.7-1.8-.7-2.9 0-.7 1.1-2.9 3.3-5.1 2.6-2.2 4.4-3.3 4.8-3.3 1 1.2 2 1.5 2.6 1.4-.7 3.1-1.6 6.1-2.5 9zm3.8-16.6c-1.9.6-3.4 1.5-4 2.9-2.6-1.1-6.2 1.1-9.1 4-1.8 2.2-4 5.1-4 7.7 0 .7.4 1.1.4 1.5-1.5.4-2.2 1.8-2.9 3.7h-18c.4-2.2.7-4.4.7-6.6 0-6.2-1.8-12.8-5.8-13.2 1.1-.7 1.5-2.9 0-6.2-1.1-2.2-2.9-4.8-5.1-6.9-2.2-2.2-4.7-4-6.9-5.1-3.3-1.8-5.5-.7-6.2 0-.4-4-6.2-5.8-12.4-5.8h-.7v3.7h.7c5.5 0 8.4 1.5 8.8 2.2.4 2.6 1.5 3.3 2.2 3.7.7.4 2.2.7 4-1.1.7-.4 4.4.7 8.4 4.8 4.4 4.4 5.5 7.7 5.1 8.4-1.8 1.8-1.5 3.3-1.1 4 .4.7 1.1 1.8 3.7 1.8.7.4 2.6 3.7 2.6 9.5s-1.5 9.1-2.2 9.5c-2.6.4-3.3 1.5-3.7 2.2s-.7 2.2 1.1 4c.4.7-.7 4.4-4.8 8.4-1.1.7-2.2 1.8-3.3 2.6l2.2 2.9c1.1-1.1 2.6-2.2 3.7-3.3 4.4-4.4 7.7-10.6 5.1-13.5 1.5 0 2.6-1.1 3.7-2.9h18.6v1.8c0 2.9.7 6.6 2.6 8.4.4.4.7.7 1.1.7-.7 1.3-.1 3.2 1 5.1-12.3 18.4-31.2 32.1-53.3 37.8l1.5-11.8 10.2-9.9v-43.5c0-19-15.3-34.7-34.7-35.1h-.4c-19 0-34.7 16.1-34.7 35.1V232l10.2 9.9 1.5 11.5c-18.1-4.9-34-15.2-45.9-29.1 9.3-.2 21-1.2 23.2-4.3l.7-.4v-47.5c0-1.1-.7-2.2-2.9-2.9v-25.9h3.3v-3.7h-3.3v-26.3h7.3v-3.7h-25.2v-3.7h-3c16.6-19.8 41.6-32.2 69.4-32.2 46.2 0 84.4 34.4 90.5 78.9h-2.1v-5.8h-3.7v5.8h-10.2v-10.9h1.8V138h-1.8c-1.1 0-1.8.4-2.6 1.1-.7.7-1.1 1.5-1.1 2.6v10.6h-9.1l-2.9-22.7c-1.1-6.6-7.3-12.1-13.9-12.1H251v3.7h25.9c5.1 0 9.5 4.4 10.2 9.1l3.7 25.9h32.1c.3 2.9.4 5.8.4 8.8 0 4.1-.2 8.1-.7 12z"/></symbol><symbol viewBox="0 0 49.984 50" id="sprite-arrow-left-large"><title>arrow-left-large</title><path d="M34.02 0l.6.448L16.299 25 34.62 49.551l-.6.449-18.655-25z"/></symbol><symbol viewBox="0 0 18.494 18.494" id="sprite-arrow-left"><title>arrow-left</title><path d="M13.518 18.494L4.27 9.247 13.518 0l.707.707-8.541 8.54 8.541 8.54z"/></symbol><symbol viewBox="0 0 49.984 50" id="sprite-arrow-right-large"><title>arrow-right-large</title><path d="M15.965 50l-.6-.448L33.686 25 15.365.449l.6-.449L34.62 25z"/></symbol><symbol viewBox="0 0 18.494 18.494" id="sprite-arrow-right"><title>arrow-right</title><path d="M4.977 0l9.248 9.247-9.248 9.247-.707-.707 8.541-8.54L4.27.707z"/></symbol><symbol viewBox="271.8 395.6 52.3 52.2" id="sprite-blog"><title>blog</title><path fill="#0075A9" d="M319.1 395.6h-47.2v3.7c-.1.4-.1.7-.1 1.1V443c0 .4.1.7.1 1.1v3.7H324.1v-52.2h-5z"/><path fill="none" stroke="#FFF" stroke-width="1.5" stroke-linecap="round" stroke-linejoin="round" stroke-miterlimit="10" d="M281.7 412.8c3-5.7 9.1-9.4 16.1-9.4 4.5 0 8.7 1.9 11.9 4.7-.9-.2-1.9 0-2.9.6-2.3 1.3-3.1 5.2-.1 7.1 1.9 1.2 2.6 4.2 2.5 6s-4.4 10.2-4.4 10.2l-4.2-14.6s-.1-1-.1-1.3c0-.4.1-.8.4-1.1.2-.2.4-.5.7-.5h2v-1.6h-10.9v1.6h.3c.4 0 .7.5 1 .8.4.4.9 2 1.5 3.6l1.6 5.2-3.4 7.9-3.8-15.8s.1-1.1.3-1.3c.1-.1.4-.5.6-.5h.1v-1.6h-9.2zm2.1 2.7s-.9-1.1-1.8-1.1h-1c-.9 2-1.4 4.7-1.4 7.2 0 7.5 4.6 13.9 11.1 16.6l-6.9-22.7zm29.7-2.9c.3 1.6.3 3.6-.4 5.8-1.8 5.7-6.1 15.9-7.8 19.9 6.3-2.8 10.7-9.1 10.7-16.5 0-3.3-.9-6.5-2.5-9.2zM298.2 428l-4.7 11.4c1.4.3 2.8.5 4.3.5s3-.2 4.4-.5l-4-11.4z"/></symbol><symbol viewBox="-33.5 34.5 26.131 24.139" id="sprite-close"><title>close</title><path fill="#FFF" d="M-7.37 35.826l-11.59 10.792 11.473 10.514-1.323 1.498-11.615-10.646-11.443 10.656-1.498-1.325L-21.9 46.638l-11.6-10.631 1.324-1.497 11.744 10.761L-8.869 34.5l1.499 1.326z"/><path fill="#FFF" d="M-8.868 34.502l1.498 1.324-24.499 22.814-1.498-1.325 24.499-22.813z"/></symbol><symbol viewBox="0 0 20 20" id="sprite-edit"><title>edit</title><path fill="#0075A9" d="M19.854 3.147l-3-3a.5.5 0 0 0-.707 0l-13 13c-.021.021-.03.047-.046.069-.015.021-.036.037-.048.062l-3 6a.5.5 0 0 0 .67.67l6-3c.028-.014.046-.037.071-.056.019-.014.042-.021.059-.039l13-13a.5.5 0 0 0 .001-.706zM3.637 14.345l2.019 2.019-4.037 2.019 2.018-4.038zM6.5 15.793L4.207 13.5 16.5 1.207 18.793 3.5 6.5 15.793z"/></symbol><symbol viewBox="0 0 2048 2048" id="sprite-envelope-o"><title>envelope-o</title><path d="M1792 1632V864q-32 36-69 66-268 206-426 338-51 43-83 67t-86.5 48.5T1025 1408h-2q-48 0-102.5-24.5T834 1335t-83-67q-158-132-426-338-37-30-69-66v768q0 13 9.5 22.5t22.5 9.5h1472q13 0 22.5-9.5t9.5-22.5zm0-1051v-24.5l-.5-13-3-12.5-5.5-9-9-7.5-14-2.5H288q-13 0-22.5 9.5T256 544q0 168 147 284 193 152 401 317 6 5 35 29.5t46 37.5 44.5 31.5T980 1271t43 9h2q20 0 43-9t50.5-27.5 44.5-31.5 46-37.5 35-29.5q208-165 401-317 54-43 100.5-115.5T1792 581zm128-37v1088q0 66-47 113t-113 47H288q-66 0-113-47t-47-113V544q0-66 47-113t113-47h1472q66 0 113 47t47 113z" fill="#fff"/></symbol><symbol viewBox="0 0 32 32" id="sprite-facebook"><title>facebook</title><path d="M12.816 31V17.315H8.21v-5.334h4.606v-3.93C12.816 3.485 15.604 1 19.675 1c1.95 0 3.626.146 4.115.212V5.98l-2.825.003c-2.213 0-2.643 1.052-2.643 2.597v3.402h5.282l-.688 5.334h-4.595V31"/></symbol><symbol viewBox="0 0 20 20" id="sprite-fax"><title>fax</title><g fill="#0075A9"><path d="M19.5 6H16V.5a.5.5 0 0 0-.5-.5h-11a.5.5 0 0 0-.5.5V6H.5a.5.5 0 0 0-.5.5v11a.5.5 0 0 0 .5.5H4v1.5a.5.5 0 0 0 .5.5h11a.5.5 0 0 0 .5-.5V18h3.5a.5.5 0 0 0 .5-.5v-11a.5.5 0 0 0-.5-.5zM5 1h10v9H5V1zm10 18H5v-3h10v3zm4-2h-3v-1.5a.5.5 0 0 0-.5-.5h-11a.5.5 0 0 0-.5.5V17H1V7h3v3.5a.5.5 0 0 0 .5.5h11a.5.5 0 0 0 .5-.5V7h3v10z"/><path d="M6.5 3h7a.5.5 0 0 0 0-1h-7a.5.5 0 0 0 0 1zM6.5 5h7a.5.5 0 0 0 0-1h-7a.5.5 0 0 0 0 1zM6.5 7h7a.5.5 0 0 0 0-1h-7a.5.5 0 0 0 0 1zM6.5 9h7a.5.5 0 0 0 0-1h-7a.5.5 0 0 0 0 1zM15 12a.5.5 0 0 0 0 1h2.5a.5.5 0 0 0 0-1H15z"/></g></symbol><symbol viewBox="0 0 20 20" id="sprite-file-pdf"><title>file-pdf</title><path fill="#0075A9" d="M19.961 5.308a.473.473 0 0 0-.109-.162L14.854.148a.475.475 0 0 0-.162-.108A.49.49 0 0 0 14.5 0h-8A2.502 2.502 0 0 0 4 2.5V4H1.5C.673 4 0 4.673 0 5.5v3C0 9.327.673 10 1.5 10h10c.826 0 1.5-.673 1.5-1.5v-3c0-.827-.674-1.5-1.5-1.5H5V2.5C5 1.673 5.672 1 6.5 1H14v4.5a.5.5 0 0 0 .5.5H19v11.5c0 .827-.674 1.5-1.5 1.5h-11c-.828 0-1.5-.673-1.5-1.5v-7a.5.5 0 0 0-1 0v7C4 18.879 5.121 20 6.5 20h11c1.379 0 2.5-1.121 2.5-2.5v-12a.503.503 0 0 0-.039-.192zM11.5 5c.275 0 .5.225.5.5v3c0 .275-.225.5-.5.5h-10a.501.501 0 0 1-.5-.5v-3c0-.275.225-.5.5-.5h10zM15 5V1.707L18.293 5H15z"/><path fill="#0075A9" d="M6.815 15.604h.42c.69 0 1.201-.146 1.53-.44.328-.294.493-.69.493-1.19 0-.467-.159-.826-.477-1.078-.318-.252-.821-.379-1.511-.379H6.207v4.83h.608v-1.743zm0-2.584h.455c.467 0 .807.084 1.019.25.212.164.318.41.318.737 0 .347-.109.613-.329.806-.219.19-.566.287-1.043.287h-.42v-2.08zM12.244 17.195c.338-.102.623-.254.857-.459.231-.205.41-.469.535-.787a3.16 3.16 0 0 0 .186-1.131c0-.41-.053-.762-.158-1.053a1.657 1.657 0 0 0-.482-.716c-.217-.184-.492-.319-.826-.405s-.727-.129-1.18-.129h-.994v4.829h.91c.429.002.812-.048 1.152-.149zm-1.453-4.154h.385c.322 0 .607.029.857.091s.459.161.627.302c.168.14.295.322.381.549.086.228.129.506.129.836 0 .359-.045.666-.135.918a1.534 1.534 0 0 1-.4.619 1.592 1.592 0 0 1-.65.354c-.26.074-.557.11-.893.11h-.301v-3.779zM15.494 15.28h1.856v-.505h-1.856V13.02h2.024l.043-.504h-2.674v4.83h.607z"/></symbol><symbol viewBox="12.5 52.5 64 64" id="sprite-globe"><title>globe</title><g fill="#FFF"><path d="M44.502 65.499l-.173.001c-10.476.095-18.923 8.694-18.829 19.171.094 10.383 8.617 18.83 19 18.83l.171-.001a18.874 18.874 0 0 0 13.384-5.687 18.872 18.872 0 0 0 5.444-13.484c-.093-10.383-8.615-18.83-18.997-18.83zm-5.379 3.339c.246.02.447.078.617.27.229.26.182.578-.051.823a.995.995 0 0 1-.17.141c-.138.095-.287.174-.432.258-.338.193-.6.501-.904.737a6.009 6.009 0 0 1-.445.308 8.6 8.6 0 0 0-.619.442c-.339.262-.701.509-1.061.738-.162.102-.322.238-.496.32a4.631 4.631 0 0 0-.529.308c-.281.18-.599.338-.834.579a1.44 1.44 0 0 1-.328.245c-.085.05-.098.038-.194.061-.073.019-.099.078-.194.056-.058-.016-.118-.042-.182-.061a.89.89 0 0 1-.193-.096c-.125-.079-.32-.486-.32-.634-.002-.222.279-.396.336-.624.047-.184.02-.387.041-.575.012-.108.034-.215.056-.321a16.988 16.988 0 0 1 5.269-3.193c.188.146.393.198.633.218zm-1.193 7.506a.662.662 0 0 1-.141.138.806.806 0 0 1-.191.102c-.262.092-.529-.062-.805.013-.175.047-.314.061-.48-.021-.124-.061-.246-.15-.359-.229-.119-.085-.33-.157-.299-.343.022-.14.162-.238.256-.334.111-.112.201-.224.293-.346.112-.15.244-.279.359-.426.08-.102.12-.218.183-.33.053-.094.191-.274.312-.269.143.008.299.255.383.351.029.031.043.062.068.099.031.051.083.073.123.113.072.071.131.157.197.235.044.053.1.09.112.162.008.047-.007.091.005.135.023.087.051.187.052.278-.003.217.058.489-.068.672zm6.723 25.156l-.153.001c-.059 0-.115-.008-.174-.009-.067-.021-.141-.046-.182-.054-.072-.014-.156.003-.226-.013-.072-.018-.078-.071-.15-.088-.078-.019-.169.026-.247.008-.131-.031-.285-.12-.41-.146-.193-.039-.291-.013-.457-.116-.243-.151-.498-.202-.718-.396-.077-.067-.104-.147-.157-.221-.045-.061-.095-.092-.146-.156-.062-.077-.124-.301-.155-.4a5.673 5.673 0 0 0-.439-1.021c-.198-.376-.197-.823-.416-1.196-.115-.195-.128-.412-.212-.633-.079-.209-.187-.422-.213-.631-.03-.238.025-.482-.021-.717-.027-.133-.162-.299-.193-.439-.055-.248-.072-.511-.095-.767a1.165 1.165 0 0 0-.24-.592c-.048-.057-.091-.074-.144-.118-.098-.083-.094-.045-.131-.197-.094-.383-.344-.766-.717-.924-.223-.095-.455 0-.693-.059-.102-.023-.131-.073-.245-.09-.142-.021-.212.035-.337.067-.141.037-.278-.011-.418.015-.125.021-.205.083-.335.089-.229.011-.454.03-.674.077-.071.016-.155.078-.226.109a1.512 1.512 0 0 1-.254.081c-.096.025-.141.067-.27.065-.111-.002-.223 0-.334 0-.469 0-.905.019-1.318-.188-.329-.165-.537-.471-.754-.75-.143-.183-.229-.356-.416-.506-.472-.377-.867-1.154-.85-1.758.019-.69-.299-1.301-.214-2.005.07-.585.27-1.144.443-1.702.193-.624.475-1.107.826-1.65.381-.586 1.158-.821 1.783-.896.117-.014.142-.067.244-.091.083-.019.168.007.256-.014.621-.15.994-.66 1.41-1.107.145-.156.239-.328.078-.516-.186-.215-.557-.124-.81-.187-.123-.026-.202-.113-.322-.149a.736.736 0 0 1-.404-.268c-.11-.144-.151-.308-.187-.482-.045-.227-.096-.454-.129-.686-.014-.088.014-.159.031-.246.022-.096.016-.191.072-.279.027-.045.109-.081.154-.106.036-.021.092-.054.128-.064.048-.013.093-.011.142-.024a.915.915 0 0 1 .365-.037c.057.011.116.021.172.033.039.006.09.033.135.041.082.016.184-.002.268-.002l.221-.002c.049 0 .101.006.147-.008.05-.014.099-.012.147-.025.113-.029.199-.123.264-.221.047-.068.062-.155.095-.226.023-.05.056-.098.081-.144a.391.391 0 0 0 .045-.178c.007-.066.026-.123.025-.193.001-.052.005-.108.001-.162-.002-.042-.012-.067-.021-.105-.007-.033.002-.069-.005-.098-.012-.06-.043-.119-.07-.173-.029-.056-.033-.118-.064-.174a1.387 1.387 0 0 1-.061-.122c-.023-.051-.041-.087-.034-.146.007-.057.032-.068.072-.104.089-.077.149-.137.272-.146.105-.006.213 0 .318-.001.063-.001.137-.012.199.003.161.041.33.001.494.019.186.022.355.026.537-.011.078-.018.137-.078.209-.102.057-.016.107-.014.164-.034.041-.015.073-.025.113-.047.087-.049.186-.086.236-.172.02-.034.037-.07.053-.106.025-.061.018-.105.025-.165.005-.047.02-.088.032-.136.013-.057.019-.113.046-.163a.219.219 0 0 1 .107-.103c.059-.029.105-.07.162-.098.148-.073.322-.055.471-.127a.85.85 0 0 1 .398-.076.612.612 0 0 0 .25-.055.804.804 0 0 0 .221-.124.503.503 0 0 0 .125-.196c.016-.086.01-.177-.063-.227-.055-.037-.136-.092-.195-.11-.081-.024-.188-.007-.274-.007h-.312c-.096.001-.154-.033-.25-.031-.049.001-.072.011-.104-.029-.037-.049-.043-.134-.076-.191-.03-.051-.065-.073-.104-.115a.447.447 0 0 1-.086-.165c-.014-.05.005-.099-.004-.148-.014-.07-.033-.11-.033-.186 0-.207.08-.416.199-.584.1-.14.246-.228.371-.34.16-.144.291-.321.438-.478.149-.159.303-.315.444-.482.129-.15.248-.31.346-.482.272-.481.832-.806 1.229-1.187.146-.14.278-.193.43-.308.248-.186.229-.285.578-.283.84.003 1.428.331 2.193.607.129.046.256.096.374.163.06.034.112.077.171.113.053.034.115.022.166.055.056.035.096.112.123.167a.54.54 0 0 1 .025.343c-.031.091-.139.15-.212.194-.062.037-.09.043-.157.061a.202.202 0 0 0-.127.117c-.036.134.162.187.252.221.123.046.242.045.368.069.047.01.108.048.163.058.07.012.123-.012.189.036.18.132.345.201.565.142.239-.063.479-.035.677-.213.182-.162.318-.299.521-.435.126-.083.234-.167.365-.247.152-.095.218-.089.366-.153.405-.174.82-.308 1.274-.361.102-.013.207-.021.313-.024.626-.023 1.198-.255 1.837-.262.301-.003.481-.049.708.147.158.137.376.314.497.483.132.182.352.574.6.603.184.021.281-.167.412-.254.047-.031.103-.049.155-.069 3.561 3.091 5.848 7.619 5.893 12.671.001.076-.009.151-.009.228-.082.184-.085.422-.124.601-.063.29-.139.6-.235.88-.208.6-.938 1.025-1.463 1.363-.158.104-.244.285-.43.137-.131-.104-.091-.258-.09-.406.001-.312.044-.68-.037-.98-.096-.356-.053-.769-.229-1.107-.141-.273-.303-.518-.404-.822-.09-.271-.302-.57-.354-.882-.036-.22.057-.245-.113-.401a3.017 3.017 0 0 0-.342-.241c-.298-.178-.678.028-.998.041-.318.01-.559.057-.85.177-.502.205-1.334.277-1.635-.297-.025-.049-.021-.112-.053-.165a.994.994 0 0 0-.107-.124 1.089 1.089 0 0 0-.344-.217c-.284-.082-.49.312-.462.551.04.349.333.623.525.897.159.228.416.341.687.354.354.019.718-.073 1.072-.008.17.033.295.067.473.071.154.004.293.033.326.207.028.142-.098.239-.134.363-.042.147-.044.312-.083.466-.047.179-.075.357-.162.524-.181.348-.432.668-.684.967-.174.209-.352.422-.527.641-.305.375-.602.762-.857 1.15-.301.455-.535.888-1.16.724-.381-.103-.638-.442-.828-.767-.102-.171-.103-.299-.146-.482-.045-.191-.197-.312-.281-.485-.078-.16-.135-.381-.24-.522-.091-.123-.248-.202-.34-.325-.097-.131-.188-.263-.286-.401-.241-.339-.523-.578-.839-.851-.143-.122-.344-.241-.457-.396-.057-.077-.135-.377-.286-.342-.235.055-.1.526-.043.649.097.217.186.326.241.548.079.316.297.671.486.961.135.207.16.46.283.672.117.203.295.199.447.354.291.293.199.772.52 1.041.148.122.237.273.373.404.137.131.321.16.494.22.228.081.306.267.51.361.103.047.186.03.289.062.097.031.178.104.271.146.148.063.332.015.471.103.17.107.126.277.129.451.004.183-.086.294-.124.45-.036.154-.076.34-.172.477-.083.117-.241.222-.36.29-.135.08-.258.169-.397.256-.326.206-.636.476-.932.729a2.86 2.86 0 0 0-.677.856 9.074 9.074 0 0 1-.914 1.495c-.207.275-.387.426-.465.76-.067.289-.251.625-.421.897-.198.318-.312.688-.513 1.006-.307.487-.439 1.06-.736 1.553a5.003 5.003 0 0 0-.309.606c-.119.276-.303.438-.481.67-.12.156-.2.307-.353.439-.166.144-.375.225-.562.32-.178.091-.349.124-.534.198l-.03.012c-.271.013-.545.042-.826.045z"/><path d="M45.633 83.986c.112-.002.274-.031.385-.006.044.01.049.043.094.053.043.011.094-.002.139.007.033.007.064.032.109.038.049.007.102-.008.15-.004.086.013.132.049.208.088.021.012.08.043.098.049.064.018.126-.006.188.007.068.015.124.087.193.101.094.021.203-.022.298-.008.122.021.216.094.346.101.114.004.229-.005.344-.005.096-.001.201.012.296-.002.117-.015.122-.056.183-.15.11-.175.245-.315.34-.494.037-.068.095-.173.112-.245.023-.106-.019-.192.029-.298.023-.052.055-.091.062-.148.01-.049-.016-.102-.005-.15.009-.038.06-.055.056-.097-.003-.042-.06-.083-.09-.109-.148-.118-.34-.163-.508-.241-.223-.105-.447-.217-.693-.23a5.716 5.716 0 0 1-.787-.078c-.13-.024-.262-.022-.392-.046-.089-.016-.171-.001-.259-.005-.126-.008-.244-.046-.37-.051-.278-.009-.533.056-.812.059l-.773.007c-.193.001-.357.041-.545.052-.076.005-.123.038-.195.055-.092.021-.166-.019-.247-.039-.181-.044-.265.013-.394-.152-.092-.118-.158-.223-.238-.345-.082-.128-.213-.208-.31-.328-.067-.083-.1-.093-.103-.211-.002-.085.01-.128-.061-.183-.021-.018-.098-.059-.123-.073-.072-.037-.117-.032-.203-.032-.211 0-.412-.051-.624-.047-.374.004-.645.155-.989.273-.085.027-.165.025-.248.053-.092.032-.17.097-.26.132-.065.023-.13.042-.195.062-.088.028-.163.018-.25.038-.32.069-.663.21-.916.414-.119.095-.262.148-.403.202-.195.073-.212.09-.255.285a.193.193 0 0 0-.039.101c.005-.016-.037.133-.037.109 0 .106.027.088.139.086.082-.004.164-.003.246-.003.225-.002.451-.002.677-.005.103 0 .205-.002.308-.004.073-.001.105.025.158.038.077.015.156.009.236.007.098-.002.154.014.246.037.078.021.156.004.234.02a.082.082 0 0 0 .059.041c.046.01.104-.012.15-.005.09.009.092.026.158.085.071.062.166.09.24.145a.484.484 0 0 1 .137.223c.022.071.006.145.023.221.02.086.06.175.09.257.027.075.067.127.101.194.028.055.029.137.062.197.035.07.08.1.125.158.05.061.045.146.098.198.072.072.281.146.372.169.132.035.296.009.433.008.158-.002.332.018.488-.002.32-.041.624-.176.94-.243.31-.065.569-.252.89-.283.104-.01.208.006.312 0 .159-.013.306-.04.466-.041.101-.005.202-.006.306-.007z"/></g></symbol><symbol viewBox="0 0 32 32" id="sprite-googleplus"><title>googleplus</title><path d="M20.081 13.881H10.023v4.24h5.717a5.977 5.977 0 0 1-11.563-2.12 5.976 5.976 0 0 1 9.831-4.564L17 8.508a10.117 10.117 0 0 0-6.847-2.66C4.546 5.848 0 10.394 0 16.002c0 5.605 4.546 10.15 10.153 10.15 5.605 0 10.151-4.545 10.151-10.15a10.067 10.067 0 0 0-.223-2.121z"/><path fill-rule="evenodd" clip-rule="evenodd" d="M32 16.772h-3.536v3.533h-2.57v-3.533H22.36v-2.57h3.533v-3.534h2.57v3.534H32v2.57z"/></symbol><symbol viewBox="0 0 202.70135 59.781677" id="sprite-logo-brk"><title>logo-brk</title><path d="M74.854 0h6.567c1.3 0 2.27.054 2.908.162.638.108 1.21.334 1.715.676.504.343.924.799 1.26 1.37.336.57.505 1.209.505 1.917 0 .767-.208 1.472-.62 2.112a3.844 3.844 0 0 1-1.682 1.442c.998.292 1.764.79 2.3 1.494.536.704.804 1.53.804 2.482a4.9 4.9 0 0 1-.52 2.183 4.404 4.404 0 0 1-1.424 1.696c-.602.423-1.342.683-2.224.78-.553.06-1.886.098-4 .113h-5.59V0h.001zm3.325 2.73v3.786h2.17c1.29 0 2.091-.018 2.404-.055.566-.067 1.011-.263 1.337-.587.323-.324.486-.75.486-1.278 0-.506-.14-.918-.42-1.234-.279-.317-.695-.508-1.246-.575-.328-.037-1.272-.056-2.83-.056H78.18zm0 6.517v4.405h3.071c1.196 0 1.955-.034 2.276-.102.492-.09.894-.309 1.204-.657.31-.349.466-.815.466-1.4 0-.494-.12-.913-.359-1.258-.239-.344-.585-.595-1.036-.753-.452-.157-1.433-.236-2.942-.236h-2.68zM93.283 8.19l-2.843-.504c.321-1.162.874-2.022 1.657-2.581.785-.558 1.95-.838 3.495-.838 1.403 0 2.449.166 3.136.498.686.332 1.17.755 1.45 1.266s.42 1.45.42 2.817l-.047 3.673c0 1.045.05 1.816.15 2.312.1.496.287 1.028.561 1.596h-3.118a11.32 11.32 0 0 1-.3-.92 5.366 5.366 0 0 0-.113-.366 5.653 5.653 0 0 1-1.718 1.188 4.86 4.86 0 0 1-1.954.395c-1.22 0-2.182-.332-2.885-.996-.703-.665-1.054-1.505-1.054-2.52 0-.672.16-1.272.48-1.798.32-.526.77-.93 1.348-1.21.578-.279 1.411-.524 2.5-.732 1.47-.277 2.487-.535 3.055-.773v-.318c0-.613-.15-1.05-.449-1.31-.3-.262-.864-.392-1.694-.392-.56 0-.998.112-1.313.336-.315.224-.57.616-.764 1.178zm4.219 2.547c-.403.135-1.041.295-1.914.482-.872.187-1.444.37-1.712.549-.41.291-.615.66-.615 1.108 0 .441.164.822.492 1.143.328.32.746.481 1.254.481.567 0 1.108-.186 1.623-.56.38-.283.63-.63.75-1.04.082-.27.123-.782.123-1.536v-.627h-.001z" clip-rule="evenodd" fill-rule="evenodd"/><path d="M101.739 4.52h3.347l2.855 8.447 2.786-8.447h3.255l-4.197 11.46-.757 2.068c-.277.694-.541 1.223-.792 1.588-.25.365-.54.662-.866.889a3.794 3.794 0 0 1-1.202.531 6.266 6.266 0 0 1-1.612.19 8.404 8.404 0 0 1-1.786-.19l-.275-2.457c.494.098.94.146 1.337.146.734 0 1.276-.216 1.629-.647.351-.43.621-.98.808-1.647L101.74 4.52z"/><path d="M122.439 12.665l3.142.528c-.403 1.151-1.04 2.028-1.91 2.63-.869.602-1.957.903-3.262.903-2.068 0-3.597-.677-4.59-2.032-.784-1.084-1.176-2.454-1.176-4.107 0-1.976.515-3.523 1.544-4.642 1.029-1.119 2.331-1.678 3.904-1.678 1.768 0 3.162.586 4.184 1.757 1.022 1.17 1.51 2.964 1.466 5.38h-7.865c.022.934.275 1.66.76 2.18.483.52 1.085.78 1.806.78.49 0 .904-.135 1.24-.403.333-.268.586-.7.757-1.296zm.183-3.189c-.022-.914-.256-1.61-.703-2.085a2.153 2.153 0 0 0-1.63-.714c-.685 0-1.25.251-1.698.754-.446.502-.666 1.184-.658 2.046h4.69z" clip-rule="evenodd" fill-rule="evenodd"/><path d="M130.872 16.428h-3.142V4.52h2.912V6.21c.502-.799.952-1.323 1.353-1.571a2.53 2.53 0 0 1 1.363-.373c.718 0 1.411.198 2.077.594l-.974 2.743c-.531-.343-1.025-.515-1.48-.515-.442 0-.815.121-1.122.364-.307.242-.547.68-.724 1.315-.175.635-.263 1.963-.263 3.986v3.674z"/><path d="M136.321 2.914V0h3.141v2.914h-3.14zm0 13.514V4.52h3.141v11.908h-3.14z" clip-rule="evenodd" fill-rule="evenodd"/><path d="M141.097 13.078l3.164-.482c.135.608.407 1.07.818 1.385.41.316.986.473 1.724.473.814 0 1.426-.15 1.836-.449.277-.21.415-.49.415-.842a.83.83 0 0 0-.225-.595c-.157-.15-.508-.288-1.053-.415-2.54-.561-4.15-1.075-4.83-1.538-.942-.644-1.413-1.54-1.413-2.685 0-1.034.407-1.902 1.221-2.607.814-.703 2.076-1.056 3.786-1.056 1.628 0 2.838.267 3.63.8.791.534 1.336 1.323 1.635 2.367l-2.958.55c-.127-.465-.37-.824-.727-1.072-.356-.248-.864-.372-1.525-.372-.833 0-1.43.116-1.79.348-.24.165-.36.378-.36.64 0 .224.104.415.314.573.285.21 1.268.505 2.948.887 1.682.382 2.856.85 3.522 1.403.659.56.989 1.341.989 2.344 0 1.091-.456 2.03-1.367 2.815-.912.785-2.262 1.177-4.047 1.177-1.622 0-2.906-.327-3.851-.981-.946-.654-1.565-1.545-1.856-2.668zM164.893 8.053l-3.096.551c-.104-.615-.341-1.079-.71-1.39-.37-.312-.85-.468-1.44-.468-.783 0-1.408.271-1.875.814-.466.542-.699 1.45-.699 2.723 0 1.415.237 2.414.71 2.998.473.583 1.108.876 1.906.876.596 0 1.084-.17 1.464-.512.38-.341.649-.928.804-1.76l3.096.528c-.321 1.423-.936 2.497-1.847 3.223-.91.727-2.13 1.09-3.659 1.09-1.738 0-3.124-.55-4.157-1.65-1.033-1.099-1.55-2.622-1.55-4.567 0-1.969.518-3.5 1.555-4.597 1.036-1.096 2.439-1.644 4.206-1.644 1.446 0 2.597.312 3.45.936.856.623 1.47 1.573 1.842 2.85zM169.932 0v6.09c1.02-1.215 2.242-1.823 3.661-1.823.729 0 1.385.135 1.971.404.585.268 1.027.612 1.324 1.03.297.418.5.881.608 1.389.108.507.163 1.295.163 2.362v6.976h-3.141v-6.28c0-1.247-.061-2.038-.182-2.374a1.562 1.562 0 0 0-.64-.8c-.306-.199-.688-.297-1.149-.297-.528 0-1 .126-1.415.38-.415.254-.719.637-.911 1.147-.193.511-.29 1.267-.29 2.267v5.956h-3.141V0h3.142z"/><path d="M187.275 12.665l3.142.528c-.404 1.151-1.04 2.028-1.91 2.63-.87.602-1.957.903-3.263.903-2.067 0-3.597-.677-4.59-2.032-.784-1.084-1.175-2.454-1.175-4.107 0-1.976.515-3.523 1.543-4.642 1.03-1.118 2.331-1.678 3.905-1.678 1.767 0 3.163.586 4.184 1.757 1.021 1.17 1.51 2.964 1.466 5.38h-7.865c.022.934.275 1.66.759 2.18a2.37 2.37 0 0 0 1.807.78c.491 0 .904-.135 1.239-.403.334-.268.586-.7.758-1.296zm.184-3.189c-.022-.914-.258-1.61-.704-2.085a2.153 2.153 0 0 0-1.63-.714c-.685 0-1.251.251-1.698.754-.447.502-.666 1.184-.658 2.046h4.69z" clip-rule="evenodd" fill-rule="evenodd"/><path d="M191.58 13.078l3.164-.482c.135.608.407 1.07.818 1.385.411.316.986.473 1.724.473.814 0 1.426-.15 1.837-.449.276-.21.414-.49.414-.842a.826.826 0 0 0-.225-.595c-.156-.15-.507-.288-1.053-.415-2.54-.561-4.15-1.075-4.83-1.538-.942-.644-1.413-1.54-1.413-2.685 0-1.034.407-1.902 1.221-2.607.814-.704 2.077-1.056 3.786-1.056 1.629 0 2.838.267 3.63.8.792.534 1.336 1.323 1.635 2.367l-2.958.55c-.127-.465-.37-.824-.726-1.072-.356-.248-.865-.372-1.525-.372-.833 0-1.43.116-1.79.348-.24.165-.36.378-.36.64 0 .224.104.415.314.573.285.21 1.267.505 2.948.887 1.682.382 2.855.85 3.521 1.403.66.56.99 1.341.99 2.344 0 1.091-.457 2.03-1.368 2.815-.912.785-2.261 1.177-4.047 1.177-1.622 0-2.905-.327-3.851-.981a4.53 4.53 0 0 1-1.855-2.668z"/><path fill="#e60005" d="M59.41 19.914V39.73H39.608v19.815H19.804V39.73H0V19.914h19.804V.1h19.804v19.815z"/><path d="M74.9 21.518h8.85c2.942 0 4.804 2.048 4.804 4.532 0 1.933-.782 3.381-2.598 4.118v.045c1.77.46 2.276 2.185 2.39 3.842.07 1.035.046 2.967.69 3.887h-3.609c-.436-1.035-.39-2.623-.574-3.934-.253-1.724-.92-2.483-2.735-2.483h-3.61v6.417H74.9V21.518zm3.61 7.43h3.952c1.61 0 2.483-.69 2.483-2.347 0-1.586-.874-2.277-2.483-2.277H78.51v4.624zM96.622 25.728c3.746 0 6.16 2.484 6.16 6.28 0 3.77-2.415 6.256-6.16 6.256-3.725 0-6.138-2.485-6.138-6.256 0-3.796 2.414-6.28 6.138-6.28zm0 10.074c2.23 0 2.896-1.909 2.896-3.794 0-1.91-.666-3.819-2.896-3.819-2.207 0-2.873 1.91-2.873 3.819 0 1.886.666 3.794 2.873 3.794zM108.989 26.05h2.39v2.185h-2.39v5.888c0 1.104.276 1.38 1.38 1.38.344 0 .666-.023 1.01-.092v2.554c-.55.091-1.264.115-1.907.115-2 0-3.747-.46-3.747-2.83v-7.015h-1.977V26.05h1.977v-3.565h3.264v3.565zM115.7 32.789c.093 2.07 1.104 3.013 2.92 3.013 1.31 0 2.367-.804 2.574-1.54h2.873c-.92 2.806-2.873 4.002-5.563 4.002-3.747 0-6.068-2.577-6.068-6.256 0-3.566 2.459-6.28 6.068-6.28 4.045 0 6 3.404 5.77 7.06H115.7zm5.31-2.07c-.298-1.656-1.012-2.53-2.597-2.53-2.07 0-2.667 1.61-2.713 2.53h5.31zM128.734 34.077c.023 1.426 1.218 2.001 2.505 2.001.943 0 2.138-.368 2.138-1.517 0-.99-1.357-1.336-3.701-1.84-1.886-.415-3.77-1.082-3.77-3.175 0-3.036 2.62-3.818 5.17-3.818 2.6 0 4.99.874 5.242 3.795h-3.103c-.091-1.265-1.057-1.61-2.23-1.61-.735 0-1.815.139-1.815 1.105 0 1.172 1.84 1.334 3.7 1.771 1.91.437 3.771 1.128 3.771 3.335 0 3.129-2.713 4.141-5.425 4.141-2.759 0-5.448-1.035-5.587-4.186h3.105v-.001zM82.969 49.523l7.033 9.937h-4.529l-4.942-7.384-2.068 2.093v5.29h-3.609V43.037h3.61v6.81l6.413-6.81h4.504zM91.105 47.568h3.104v2.208h.045c.598-1.495 2.207-2.53 3.793-2.53.23 0 .506.046.713.116v3.035a5.94 5.94 0 0 0-1.172-.115c-2.39 0-3.218 1.725-3.218 3.818v5.359h-3.265V47.568zM102.327 54.307c.091 2.07 1.103 3.013 2.919 3.013 1.31 0 2.367-.804 2.574-1.54h2.874c-.92 2.805-2.874 4.002-5.564 4.002-3.746 0-6.068-2.577-6.068-6.256 0-3.566 2.46-6.28 6.068-6.28 4.046 0 6 3.404 5.77 7.061h-8.573zm5.31-2.07c-.299-1.656-1.012-2.53-2.598-2.53-2.069 0-2.667 1.61-2.712 2.53h5.31zM123.773 59.46h-3.104v-1.656h-.07c-.827 1.334-2.251 1.978-3.631 1.978-3.471 0-4.344-1.955-4.344-4.9v-7.314h3.264v6.716c0 1.955.574 2.921 2.092 2.921 1.77 0 2.528-.99 2.528-3.404v-6.233h3.264V59.46zM125.565 59.46v-2.462l6.184-6.969h-5.724v-2.461h10.023v2.461L129.863 57h6.62v2.46z"/></symbol><symbol viewBox="0 0 173 85" id="sprite-logo-drk-blutspende"><title>logo-drk-blutspende</title><g fill-rule="nonzero"><path d="M36.396.212V18.42h18.177v18.237H36.396v18.206h-18.21V36.657H.006V18.42h18.18V.212h18.21z" fill="#e60005"/><path d="M68.757.125h6.542c3.908 0 6.832 2.46 6.832 7.439 0 4.37-2.23 7.612-6.832 7.612h-6.511V.125m3.299 12.302h2.952c1.91 0 3.762-1.186 3.762-4.515 0-3.04-1.041-4.98-4.342-4.98h-2.372v9.495zM86.414 10.487c.088 1.91 1.014 2.78 2.69 2.78 1.216 0 2.175-.725 2.376-1.42h2.635c-.841 2.578-2.634 3.678-5.095 3.678-3.443 0-5.586-2.374-5.586-5.732 0-3.271 2.258-5.761 5.586-5.761 3.707 0 5.529 3.127 5.297 6.484l-7.903-.03m4.893-1.91c-.26-1.533-.926-2.313-2.373-2.313-1.912 0-2.461 1.475-2.49 2.314h4.863zM106.303 15.235h-2.836V13.7h-.061a3.925 3.925 0 0 1-3.328 1.853c-3.184 0-3.996-1.823-3.996-4.486V4.294h3.012v6.166c0 1.823.521 2.692 1.91 2.692 1.621 0 2.318-.897 2.318-3.127V4.294h3.008l-.027 10.94M112.526 4.293h2.201V6.29h-2.201v5.44c0 1.015.26 1.275 1.271 1.275.32 0 .609-.03.93-.087v2.345c-.521.087-1.158.115-1.797.115-1.852 0-3.441-.434-3.441-2.604V6.319h-1.797V4.293h1.852V1.022h3.012l-.03 3.27M118.662 11.675c.029 1.302 1.129 1.853 2.314 1.853.871 0 1.971-.347 1.971-1.39 0-.896-1.244-1.216-3.387-1.68-1.736-.375-3.473-.982-3.473-2.922 0-2.78 2.398-3.504 4.744-3.504 2.375 0 4.574.81 4.807 3.475h-2.867c-.084-1.158-.982-1.477-2.055-1.477-.664 0-1.678.116-1.678 1.013 0 1.07 1.678 1.216 3.387 1.622 1.793.404 3.475 1.042 3.475 3.067 0 2.866-2.49 3.793-4.979 3.793-2.549 0-5.01-.956-5.123-3.851h2.864M134.959 8.114c-.201-1.216-.982-1.882-2.229-1.882-1.912 0-2.547 1.939-2.547 3.56 0 1.564.607 3.445 2.488 3.445 1.391 0 2.201-.896 2.375-2.23h2.896c-.379 2.896-2.375 4.488-5.271 4.488-3.299 0-5.529-2.315-5.529-5.587 0-3.388 2.027-5.905 5.588-5.905 2.578 0 4.951 1.36 5.123 4.14l-2.894-.03M139.649.125h3.012v5.673h.057c.754-1.215 2.055-1.852 3.186-1.852 3.186 0 3.994 1.823 3.994 4.486v6.744h-3.01V9.012c0-1.825-.523-2.693-1.91-2.693-1.621 0-2.316.896-2.316 3.127v5.73h-3.012V.125M154.529 10.487c.086 1.91 1.014 2.78 2.689 2.78 1.217 0 2.172-.725 2.375-1.42h2.635c-.84 2.577-2.635 3.678-5.125 3.678-3.443 0-5.586-2.374-5.586-5.732 0-3.271 2.26-5.761 5.586-5.761 3.707 0 5.531 3.127 5.299 6.484l-7.873-.03m4.862-1.91c-.289-1.533-.924-2.313-2.371-2.313-1.91 0-2.463 1.475-2.49 2.314h4.861zM166.483 11.675c.031 1.302 1.131 1.853 2.287 1.853.869 0 1.969-.347 1.969-1.39 0-.896-1.244-1.216-3.387-1.68-1.736-.375-3.473-.982-3.473-2.922 0-2.78 2.402-3.504 4.746-3.504 2.373 0 4.572.81 4.807 3.475h-2.867c-.086-1.158-.984-1.477-2.057-1.477-.662 0-1.676.116-1.676 1.013 0 1.07 1.676 1.216 3.387 1.622 1.736.404 3.473 1.042 3.473 3.067 0 2.866-2.488 3.793-4.979 3.793-2.549 0-5.008-.956-5.123-3.851h2.893M68.816 19.896h8.134c2.693 0 4.4 1.88 4.4 4.168 0 1.795-.725 3.098-2.373 3.793v.057c1.619.435 2.084 1.998 2.199 3.532.057.955.029 2.722.637 3.562h-3.33c-.404-.957-.346-2.404-.521-3.621-.23-1.592-.838-2.285-2.518-2.285h-3.327v5.877h-3.328l.027-15.083m3.3 6.83h3.616c1.477 0 2.287-.635 2.287-2.14 0-1.448-.811-2.084-2.287-2.084h-3.616v4.225zM88.789 23.775c3.443 0 5.643 2.287 5.643 5.76s-2.227 5.732-5.643 5.732-5.645-2.287-5.645-5.731c-.03-3.473 2.229-5.761 5.645-5.761m0 9.263c2.057 0 2.662-1.796 2.662-3.473 0-1.796-.605-3.503-2.662-3.503-2.027 0-2.635 1.795-2.635 3.503 0 1.706.579 3.473 2.635 3.473M100.137 24.036h2.199v1.996h-2.199v5.444c0 1.013.262 1.27 1.273 1.27.318 0 .607-.028.926-.084v2.345c-.521.085-1.16.115-1.793.115-1.855 0-3.447-.435-3.447-2.604v-6.456h-1.852v-1.998h1.852v-3.271h3.01v3.243M106.303 30.289c.086 1.91 1.012 2.778 2.691 2.778 1.217 0 2.17-.753 2.375-1.42h2.633c-.84 2.577-2.633 3.678-5.123 3.678-3.447 0-5.588-2.372-5.588-5.732 0-3.27 2.258-5.761 5.588-5.761 3.703 0 5.527 3.127 5.299 6.487l-7.875-.03m4.891-1.911c-.289-1.535-.928-2.315-2.375-2.315-1.91 0-2.459 1.476-2.488 2.315h4.863zM118.287 31.446c.027 1.302 1.127 1.85 2.314 1.85.869 0 1.969-.343 1.969-1.386 0-.897-1.244-1.217-3.387-1.681-1.736-.375-3.475-.983-3.475-2.923 0-2.78 2.404-3.503 4.748-3.503 2.375 0 4.574.81 4.805 3.475h-2.809c-.084-1.158-.953-1.477-2.055-1.477-.664 0-1.678.116-1.678 1.013 0 1.07 1.678 1.216 3.389 1.62 1.793.406 3.471 1.044 3.471 3.069 0 2.866-2.488 3.794-4.979 3.794-2.549 0-5.008-.958-5.123-3.852h2.81M68.757 39.697h3.33v6.282l5.905-6.282h4.139l-5.877 5.932 6.455 9.149H78.54l-4.544-6.774-1.91 1.94v4.834h-3.33V39.697zM83.723 43.836h2.838v2.027h.027c.55-1.361 2.027-2.317 3.475-2.317.203 0 .463.028.666.117v2.779a5.64 5.64 0 0 0-1.07-.117c-2.201 0-2.953 1.594-2.953 3.504v4.919h-3.012l.029-10.912M94.028 50.059c.088 1.91 1.014 2.749 2.693 2.749 1.186 0 2.17-.751 2.373-1.417h2.635c-.842 2.577-2.635 3.677-5.125 3.677-3.443 0-5.586-2.374-5.586-5.731 0-3.272 2.256-5.762 5.586-5.762 3.705 0 5.53 3.127 5.299 6.484h-7.875m4.863-1.911c-.29-1.534-.928-2.314-2.373-2.314-1.912 0-2.461 1.477-2.49 2.314h4.863zM113.713 54.778h-2.838V53.27h-.059a3.915 3.915 0 0 1-3.33 1.854c-3.182 0-3.992-1.823-3.992-4.487v-6.715h3.01v6.166c0 1.823.521 2.69 1.91 2.69 1.623 0 2.316-.895 2.316-3.124v-5.732h3.012l-.029 10.855M115.391 52.519l5.646-6.396h-5.211v-2.287h9.176v2.287l-5.644 6.396h6.048v2.259h-10.015v-2.26zM.219 76.966V65.25h4.036c.911 0 1.607.056 2.086.168.672.155 1.244.434 1.719.84.618.522 1.08 1.189 1.386 2.002.307.812.46 1.74.46 2.785 0 .89-.104 1.678-.312 2.366-.208.687-.474 1.256-.8 1.706-.324.45-.68.805-1.066 1.063-.386.259-.853.454-1.399.588-.546.133-1.173.2-1.882.2H.219zm1.55-1.382h2.502c.773 0 1.379-.072 1.818-.216.44-.144.79-.346 1.051-.608.368-.367.654-.861.86-1.482.205-.62.307-1.374.307-2.258 0-1.226-.2-2.167-.603-2.825-.402-.658-.891-1.1-1.467-1.323-.415-.16-1.084-.24-2.006-.24H1.77v8.952zM12.064 76.966V65.25h5.195c1.044 0 1.838.106 2.382.316.543.21.978.582 1.303 1.115.325.533.487 1.122.487 1.766 0 .832-.269 1.532-.807 2.102-.538.57-1.37.933-2.494 1.087.41.198.722.392.935.584.453.415.882.935 1.287 1.558l2.038 3.19h-1.95l-1.55-2.438a22.222 22.222 0 0 0-1.12-1.615c-.293-.373-.555-.634-.787-.783a2.327 2.327 0 0 0-.707-.312c-.176-.037-.464-.056-.863-.056h-1.799v5.203h-1.55zm1.55-6.545h3.333c.709 0 1.263-.074 1.663-.22.4-.147.703-.381.91-.704.209-.322.313-.672.313-1.05 0-.555-.202-1.01-.604-1.367-.402-.357-1.038-.536-1.906-.536h-3.709v3.877zM23.797 76.966V65.25h1.55v5.81l5.82-5.81h2.101l-4.915 4.748 5.13 6.97h-2.045l-4.172-5.931-1.919 1.87v4.06h-1.55zM34.035 72.003h4.42v1.447h-4.42zM40.166 76.966V65.25h4.396c.895 0 1.613.119 2.154.356.54.237.964.602 1.27 1.095.307.493.46 1.008.46 1.547 0 .5-.136.972-.408 1.414-.271.442-.682.8-1.23 1.071.708.208 1.253.562 1.634 1.063.381.501.571 1.093.571 1.775 0 .548-.115 1.059-.347 1.53-.232.472-.518.835-.86 1.091-.34.256-.768.449-1.282.58-.514.13-1.144.195-1.89.195h-4.468zm1.55-6.793h2.534c.687 0 1.18-.046 1.479-.136.394-.117.69-.312.89-.584.2-.271.3-.612.3-1.023 0-.389-.093-.731-.28-1.027a1.416 1.416 0 0 0-.799-.607c-.346-.11-.94-.164-1.782-.164h-2.342v3.54zm0 5.41h2.918c.5 0 .852-.018 1.055-.055.357-.064.655-.17.895-.32s.437-.366.591-.651c.155-.285.232-.614.232-.987 0-.437-.112-.817-.336-1.14a1.77 1.77 0 0 0-.93-.679c-.398-.13-.97-.196-1.715-.196h-2.71v4.029zM50.932 65.249h1.439v11.717h-1.439zM60.163 76.966V75.72c-.66.959-1.558 1.438-2.693 1.438-.501 0-.969-.096-1.403-.288-.434-.191-.757-.432-.967-.723a2.71 2.71 0 0 1-.444-1.067c-.058-.282-.088-.73-.088-1.343v-5.259h1.439v4.708c0 .751.03 1.257.088 1.518a1.5 1.5 0 0 0 .575.892c.293.215.656.323 1.087.323.432 0 .837-.11 1.215-.331.379-.221.646-.523.803-.903.158-.381.236-.934.236-1.659v-4.548h1.439v8.488h-1.287zM66.845 75.68l.208 1.27a5.336 5.336 0 0 1-1.087.128c-.522 0-.927-.082-1.215-.247a1.387 1.387 0 0 1-.608-.652c-.117-.269-.175-.835-.175-1.698v-4.884h-1.055v-1.119h1.055v-2.102l1.43-.863v2.965h1.447v1.12h-1.447v4.963c0 .41.026.674.076.79a.6.6 0 0 0 .248.28c.115.07.278.105.491.105.16 0 .37-.02.632-.056zM67.676 74.433l1.423-.224c.08.57.302 1.007.667 1.31.365.305.875.456 1.53.456.661 0 1.152-.134 1.471-.403.32-.27.48-.585.48-.947 0-.325-.141-.581-.424-.768-.197-.128-.687-.29-1.47-.487-1.055-.267-1.787-.497-2.194-.692a2.125 2.125 0 0 1-.927-.807 2.139 2.139 0 0 1-.316-1.139c0-.378.086-.728.26-1.05a2.33 2.33 0 0 1 .707-.804c.224-.165.529-.305.915-.42.386-.114.8-.171 1.243-.171.666 0 1.25.095 1.754.287.504.192.876.452 1.115.78.24.327.405.765.496 1.314l-1.407.192c-.064-.437-.249-.778-.555-1.023-.307-.245-.74-.368-1.3-.368-.66 0-1.131.11-1.414.328-.282.219-.423.474-.423.767 0 .187.058.355.175.504.118.154.301.282.552.384.144.053.567.175 1.27.367 1.018.272 1.728.494 2.13.668.403.173.719.425.948.755.229.33.344.74.344 1.23 0 .48-.14.932-.42 1.356-.28.423-.683.75-1.21.983-.528.231-1.125.347-1.791.347-1.103 0-1.944-.229-2.522-.687-.578-.458-.947-1.138-1.107-2.038zM76.436 80.22V68.477h1.31v1.103c.31-.431.659-.755 1.048-.97.389-.217.86-.325 1.414-.325.725 0 1.365.187 1.919.56.554.373.972.9 1.255 1.578.282.68.423 1.424.423 2.234 0 .869-.156 1.65-.467 2.346-.312.696-.765 1.228-1.36 1.599a3.489 3.489 0 0 1-1.873.555c-.48 0-.91-.101-1.291-.304a2.94 2.94 0 0 1-.94-.767v4.132h-1.438zm1.303-7.45c0 1.093.22 1.9.663 2.422.442.522.978.783 1.607.783.64 0 1.187-.27 1.642-.81.456-.542.684-1.38.684-2.515 0-1.081-.223-1.891-.668-2.43-.445-.537-.976-.807-1.594-.807-.613 0-1.155.287-1.627.86-.471.572-.707 1.405-.707 2.497zM91.35 74.233l1.487.184c-.235.868-.669 1.542-1.303 2.022-.634.48-1.444.72-2.43.72-1.241 0-2.226-.383-2.953-1.148-.727-.764-1.091-1.837-1.091-3.217 0-1.428.368-2.536 1.103-3.325.735-.788 1.689-1.182 2.861-1.182 1.135 0 2.062.386 2.782 1.158.719.773 1.079 1.86 1.079 3.261 0 .086-.003.214-.008.384h-6.33c.053.933.317 1.647.79 2.142.475.496 1.067.743 1.775.743.528 0 .978-.138 1.35-.415.374-.277.67-.72.888-1.327zm-4.724-2.326h4.74c-.064-.714-.245-1.25-.543-1.606-.459-.555-1.053-.832-1.783-.832-.66 0-1.216.221-1.666.664-.45.442-.7 1.033-.748 1.774zM94.643 76.966v-8.488h1.295v1.207c.623-.932 1.524-1.399 2.701-1.399.512 0 .982.092 1.411.276.429.184.75.425.963.724.213.298.363.652.448 1.063.053.266.08.732.08 1.398v5.22h-1.439v-5.164c0-.586-.056-1.024-.168-1.315a1.383 1.383 0 0 0-.595-.695 1.894 1.894 0 0 0-1.003-.26 2.33 2.33 0 0 0-1.587.584c-.445.389-.667 1.127-.667 2.214v4.635h-1.439zM109.253 76.966v-1.07c-.538.841-1.33 1.262-2.374 1.262a3.329 3.329 0 0 1-1.866-.56c-.568-.372-1.007-.893-1.319-1.562-.312-.669-.467-1.437-.467-2.306 0-.847.14-1.615.423-2.306.283-.69.706-1.218 1.271-1.586a3.398 3.398 0 0 1 1.894-.552 2.83 2.83 0 0 1 2.342 1.167V65.25h1.43v11.717h-1.334zm-4.547-4.236c0 1.087.23 1.9.687 2.438.459.538 1 .807 1.623.807.629 0 1.163-.257 1.602-.771.44-.514.66-1.299.66-2.354 0-1.161-.224-2.014-.672-2.557-.447-.544-.999-.816-1.654-.816-.64 0-1.174.261-1.603.784-.429.522-.643 1.345-.643 2.47zM118.661 74.233l1.487.184c-.235.868-.67 1.542-1.303 2.022-.634.48-1.444.72-2.43.72-1.241 0-2.226-.383-2.953-1.148-.727-.764-1.091-1.837-1.091-3.217 0-1.428.368-2.536 1.103-3.325.735-.788 1.689-1.182 2.861-1.182 1.135 0 2.062.386 2.782 1.158.719.773 1.079 1.86 1.079 3.261 0 .086-.003.214-.008.384h-6.33c.053.933.316 1.647.79 2.142.475.496 1.066.743 1.775.743.528 0 .978-.138 1.35-.415.374-.277.67-.72.888-1.327zm-4.724-2.326h4.74c-.064-.714-.246-1.25-.544-1.606-.458-.555-1.052-.832-1.782-.832-.661 0-1.216.221-1.667.664-.45.442-.699 1.033-.747 1.774zM127.461 76.966v-1.07c-.538.841-1.33 1.262-2.374 1.262a3.329 3.329 0 0 1-1.866-.56c-.568-.372-1.007-.893-1.319-1.562-.312-.669-.467-1.437-.467-2.306 0-.847.14-1.615.423-2.306.283-.69.706-1.218 1.271-1.586a3.398 3.398 0 0 1 1.894-.552 2.83 2.83 0 0 1 2.342 1.167V65.25h1.43v11.717h-1.334zm-4.548-4.236c0 1.087.23 1.9.687 2.438.459.538 1 .807 1.623.807.629 0 1.163-.257 1.602-.771.44-.514.66-1.299.66-2.354 0-1.161-.224-2.014-.672-2.557-.447-.544-.999-.816-1.654-.816-.64 0-1.174.261-1.603.784-.429.522-.643 1.345-.643 2.47zM131.065 66.904v-1.655h1.439v1.655h-1.439zm0 10.062v-8.488h1.439v8.488h-1.439zM140.504 74.233l1.487.184c-.235.868-.67 1.542-1.303 2.022-.634.48-1.444.72-2.43.72-1.241 0-2.226-.383-2.953-1.148-.727-.764-1.091-1.837-1.091-3.217 0-1.428.368-2.536 1.103-3.325.735-.788 1.689-1.182 2.861-1.182 1.135 0 2.062.386 2.782 1.158.719.773 1.079 1.86 1.079 3.261 0 .086-.003.214-.008.384h-6.33c.053.933.316 1.647.79 2.142.475.496 1.066.743 1.775.743.528 0 .978-.138 1.35-.415.374-.277.67-.72.888-1.327zm-4.723-2.326h4.74c-.064-.714-.246-1.25-.544-1.606-.458-.555-1.052-.832-1.782-.832-.661 0-1.216.221-1.667.664-.45.442-.699 1.033-.747 1.774zM143.797 76.966v-8.488h1.295v1.207c.623-.932 1.524-1.399 2.701-1.399.512 0 .982.092 1.411.276.429.184.75.425.963.724.213.298.362.652.448 1.063.053.266.08.732.08 1.398v5.22h-1.44v-5.164c0-.586-.055-1.024-.167-1.315a1.383 1.383 0 0 0-.595-.695 1.894 1.894 0 0 0-1.003-.26 2.33 2.33 0 0 0-1.587.584c-.445.389-.667 1.127-.667 2.214v4.635h-1.439zM152.325 74.433l1.423-.224c.08.57.302 1.007.667 1.31.365.305.875.456 1.53.456.661 0 1.152-.134 1.471-.403.32-.27.48-.585.48-.947 0-.325-.141-.581-.424-.768-.197-.128-.687-.29-1.47-.487-1.055-.267-1.787-.497-2.194-.692a2.125 2.125 0 0 1-.928-.807 2.139 2.139 0 0 1-.315-1.139c0-.378.086-.728.26-1.05a2.33 2.33 0 0 1 .707-.804c.224-.165.529-.305.915-.42.386-.114.8-.171 1.243-.171.666 0 1.25.095 1.754.287.504.192.875.452 1.115.78.24.327.405.765.496 1.314l-1.407.192c-.064-.437-.249-.778-.555-1.023-.307-.245-.74-.368-1.3-.368-.66 0-1.132.11-1.414.328-.282.219-.424.474-.424.767 0 .187.06.355.176.504.118.154.301.282.552.384.144.053.567.175 1.27.367 1.018.272 1.728.494 2.13.668.403.173.719.425.948.755.229.33.343.74.343 1.23 0 .48-.14.932-.42 1.356-.279.423-.683.75-1.21.983-.528.231-1.124.347-1.79.347-1.103 0-1.944-.229-2.522-.687-.578-.458-.947-1.138-1.107-2.038zM164.226 75.68l.208 1.27a5.336 5.336 0 0 1-1.087.128c-.522 0-.927-.082-1.215-.247a1.387 1.387 0 0 1-.607-.652c-.118-.269-.176-.835-.176-1.698v-4.884h-1.055v-1.119h1.055v-2.102l1.43-.863v2.965h1.447v1.12h-1.447v4.963c0 .41.026.674.076.79a.6.6 0 0 0 .248.28c.115.07.278.105.492.105.16 0 .37-.02.631-.056zM171.444 74.233l1.487.184c-.235.868-.67 1.542-1.303 2.022-.634.48-1.444.72-2.43.72-1.241 0-2.226-.383-2.953-1.148-.727-.764-1.091-1.837-1.091-3.217 0-1.428.368-2.536 1.103-3.325.735-.788 1.689-1.182 2.861-1.182 1.135 0 2.062.386 2.782 1.158.719.773 1.079 1.86 1.079 3.261 0 .086-.003.214-.008.384h-6.33c.053.933.316 1.647.79 2.142.475.496 1.066.743 1.775.743.528 0 .978-.138 1.35-.415.374-.277.67-.72.888-1.327zm-4.724-2.326h4.74c-.064-.714-.246-1.25-.544-1.606-.458-.555-1.052-.832-1.782-.832-.661 0-1.216.221-1.667.664-.45.442-.699 1.033-.747 1.774z"/></g></symbol><symbol viewBox="0.5 68.5 173.685 55" id="sprite-logo-drk"><title>logo-drk</title><path fill="#E60005" d="M36.889 68.587v18.208h18.177v18.237H36.889v18.206h-18.21v-18.206H.5V86.795h18.179V68.587z"/><path d="M69.25 68.5h6.542c3.908 0 6.832 2.46 6.832 7.439 0 4.371-2.23 7.612-6.832 7.612h-6.511V68.5m3.299 12.302h2.952c1.91 0 3.762-1.186 3.762-4.515 0-3.04-1.041-4.979-4.342-4.979H72.58v9.494zM86.907 78.862c.088 1.911 1.014 2.78 2.691 2.78 1.215 0 2.174-.725 2.375-1.419h2.635c-.841 2.577-2.634 3.677-5.095 3.677-3.443 0-5.586-2.374-5.586-5.732 0-3.271 2.258-5.761 5.586-5.761 3.707 0 5.529 3.127 5.297 6.484l-7.903-.029m4.893-1.91c-.26-1.534-.926-2.314-2.373-2.314-1.912 0-2.461 1.475-2.49 2.314H91.8zM106.796 83.61h-2.836v-1.534h-.061a3.925 3.925 0 0 1-3.328 1.853c-3.184 0-3.996-1.823-3.996-4.486v-6.774h3.012v6.166c0 1.823.521 2.692 1.91 2.692 1.621 0 2.318-.897 2.318-3.127v-5.731h3.008l-.027 10.941M113.019 72.668h2.201v1.998h-2.201v5.441c0 1.014.26 1.274 1.271 1.274.32 0 .609-.03.93-.087v2.345c-.521.087-1.158.115-1.797.115-1.852 0-3.441-.434-3.441-2.604v-6.456h-1.797v-2.026h1.852v-3.271h3.012l-.03 3.271M119.155 80.05c.029 1.302 1.129 1.853 2.314 1.853.871 0 1.971-.347 1.971-1.39 0-.896-1.244-1.216-3.387-1.679-1.736-.376-3.473-.983-3.473-2.923 0-2.779 2.398-3.504 4.744-3.504 2.375 0 4.574.811 4.807 3.475h-2.867c-.084-1.158-.982-1.477-2.055-1.477-.664 0-1.678.116-1.678 1.013 0 1.071 1.678 1.216 3.387 1.622 1.793.404 3.475 1.042 3.475 3.067 0 2.866-2.49 3.793-4.979 3.793-2.549 0-5.01-.956-5.123-3.851h2.864M135.452 76.489c-.201-1.216-.982-1.882-2.229-1.882-1.912 0-2.547 1.939-2.547 3.561 0 1.563.607 3.444 2.488 3.444 1.391 0 2.201-.896 2.375-2.229h2.896c-.379 2.895-2.375 4.487-5.271 4.487-3.299 0-5.529-2.315-5.529-5.587 0-3.388 2.027-5.905 5.588-5.905 2.578 0 4.951 1.36 5.123 4.14l-2.894-.029M140.142 68.5h3.012v5.673h.057c.754-1.215 2.055-1.852 3.186-1.852 3.186 0 3.994 1.823 3.994 4.486v6.744h-3.01v-6.164c0-1.825-.523-2.693-1.91-2.693-1.621 0-2.316.896-2.316 3.127v5.73h-3.012V68.5M155.022 78.862c.086 1.911 1.014 2.78 2.689 2.78 1.217 0 2.172-.725 2.375-1.419h2.635c-.84 2.576-2.635 3.677-5.125 3.677-3.443 0-5.586-2.374-5.586-5.732 0-3.271 2.26-5.761 5.586-5.761 3.707 0 5.531 3.127 5.299 6.484l-7.873-.029m4.862-1.91c-.289-1.534-.924-2.314-2.371-2.314-1.91 0-2.463 1.475-2.49 2.314h4.861zM166.976 80.05c.031 1.302 1.131 1.853 2.287 1.853.869 0 1.969-.347 1.969-1.39 0-.896-1.244-1.216-3.387-1.679-1.736-.376-3.473-.983-3.473-2.923 0-2.779 2.402-3.504 4.746-3.504 2.373 0 4.572.811 4.807 3.475h-2.867c-.086-1.158-.984-1.477-2.057-1.477-.662 0-1.676.116-1.676 1.013 0 1.071 1.676 1.216 3.387 1.622 1.736.404 3.473 1.042 3.473 3.067 0 2.866-2.488 3.793-4.979 3.793-2.549 0-5.008-.956-5.123-3.851h2.893M69.309 88.271h8.134c2.693 0 4.4 1.881 4.4 4.168 0 1.795-.725 3.098-2.373 3.793v.057c1.619.435 2.084 1.998 2.199 3.532.057.955.029 2.722.637 3.562h-3.33c-.404-.957-.346-2.404-.521-3.621-.23-1.592-.838-2.285-2.518-2.285H72.61v5.877h-3.328l.027-15.083m3.3 6.831h3.616c1.477 0 2.287-.636 2.287-2.141 0-1.448-.811-2.084-2.287-2.084h-3.616v4.225zM89.282 92.15c3.443 0 5.643 2.287 5.643 5.761 0 3.472-2.227 5.731-5.643 5.731s-5.645-2.287-5.645-5.731c-.029-3.473 2.229-5.761 5.645-5.761m0 9.263c2.057 0 2.662-1.796 2.662-3.473 0-1.796-.605-3.503-2.662-3.503-2.027 0-2.635 1.795-2.635 3.503 0 1.706.579 3.473 2.635 3.473M100.63 92.411h2.199v1.996h-2.199v5.444c0 1.013.262 1.271 1.273 1.271.318 0 .607-.029.926-.085v2.345c-.521.085-1.16.115-1.793.115-1.855 0-3.447-.435-3.447-2.604v-6.456h-1.852v-1.998h1.852v-3.271h3.01v3.243M106.796 98.664c.086 1.91 1.012 2.778 2.691 2.778 1.217 0 2.17-.753 2.375-1.419h2.633c-.84 2.576-2.633 3.677-5.123 3.677-3.447 0-5.588-2.372-5.588-5.732 0-3.27 2.258-5.761 5.588-5.761 3.703 0 5.527 3.127 5.299 6.487l-7.875-.03m4.891-1.911c-.289-1.535-.928-2.315-2.375-2.315-1.91 0-2.459 1.476-2.488 2.315h4.863zM118.78 99.821c.027 1.302 1.127 1.851 2.314 1.851.869 0 1.969-.344 1.969-1.387 0-.897-1.244-1.217-3.387-1.681-1.736-.375-3.475-.983-3.475-2.923 0-2.779 2.404-3.503 4.748-3.503 2.375 0 4.574.811 4.805 3.475h-2.809c-.084-1.158-.953-1.477-2.055-1.477-.664 0-1.678.116-1.678 1.013 0 1.071 1.678 1.216 3.389 1.621 1.793.405 3.471 1.043 3.471 3.068 0 2.866-2.488 3.794-4.979 3.794-2.549 0-5.008-.958-5.123-3.852h2.81M69.25 108.072h3.33v6.282l5.905-6.282h4.139l-5.877 5.932 6.455 9.149h-4.168l-4.544-6.774-1.91 1.94v4.834h-3.33zM84.216 112.211h2.838v2.027h.027c.551-1.361 2.027-2.317 3.475-2.317.203 0 .463.028.666.117v2.779a5.64 5.64 0 0 0-1.07-.117c-2.201 0-2.953 1.594-2.953 3.504v4.919h-3.012l.029-10.912M94.521 118.434c.088 1.911 1.014 2.749 2.693 2.749 1.186 0 2.17-.751 2.373-1.417h2.635c-.842 2.577-2.635 3.677-5.125 3.677-3.443 0-5.586-2.374-5.586-5.731 0-3.272 2.256-5.762 5.586-5.762 3.705 0 5.531 3.127 5.299 6.484h-7.875m4.863-1.911c-.289-1.534-.928-2.314-2.373-2.314-1.912 0-2.461 1.477-2.49 2.314h4.863zM114.206 123.153h-2.838v-1.507h-.059a3.915 3.915 0 0 1-3.33 1.854c-3.182 0-3.992-1.823-3.992-4.487v-6.715h3.01v6.166c0 1.823.521 2.691 1.91 2.691 1.623 0 2.316-.896 2.316-3.125v-5.732h3.012l-.029 10.855M115.884 120.894l5.646-6.396h-5.211v-2.287h9.176v2.287l-5.644 6.396h6.048v2.259h-10.015z"/></symbol><symbol viewBox="0 0 20 20" id="sprite-mail"><title>mail</title><path fill="#0075A9" d="M20 3.5a.5.5 0 0 0-.5-.5H.5a.497.497 0 0 0-.5.5v13a.5.5 0 0 0 .5.5h19a.503.503 0 0 0 .5-.5v-13zm-10 8.793L1.707 4h16.586L10 12.293zM6.293 10L1 15.293V4.707L6.293 10zm.707.707l2.646 2.646a.5.5 0 0 0 .708.001L13 10.707 18.293 16H1.707L7 10.707zM13.707 10L19 4.707v10.586L13.707 10z"/></symbol><symbol viewBox="0 0 20 20" id="sprite-map"><title>map</title><g fill="#0075A9"><path d="M10 5c-1.103 0-2 .897-2 2s.897 2 2 2 2-.897 2-2-.897-2-2-2zm0 3c-.551 0-1-.449-1-1s.449-1 1-1a1.001 1.001 0 0 1 0 2z"/><path d="M10 0C6.14 0 3 3.14 3 7c0 3.709 6.326 12.426 6.596 12.795a.498.498 0 0 0 .808 0C10.673 19.426 17 10.709 17 7c0-3.86-3.141-7-7-7zm0 18.638C8.593 16.637 4 9.882 4 7c0-3.309 2.691-6 6-6s6 2.691 6 6c0 2.882-4.594 9.637-6 11.638z"/></g></symbol><symbol viewBox="-33.5 34.5 26.131 24.139" id="sprite-menu"><title>menu</title><path fill="#FFF" d="M-33.5 45.5h26v2h-26v-2zM-33.5 56.5h26v2h-26v-2zM-33.5 34.5h26v2h-26v-2z"/></symbol><symbol viewBox="0 0 20 20" id="sprite-newsletter"><title>newsletter</title><path fill="#0075A9" d="M20 3.5a.5.5 0 0 0-.5-.5H.5a.497.497 0 0 0-.5.5v13a.5.5 0 0 0 .5.5h19a.503.503 0 0 0 .5-.5v-13zm-10 8.793L1.707 4h16.586L10 12.293zM6.293 10L1 15.293V4.707L6.293 10zm.707.707l2.646 2.646a.5.5 0 0 0 .708.001L13 10.707 18.293 16H1.707L7 10.707zM13.707 10L19 4.707v10.586L13.707 10z"/></symbol><symbol viewBox="0.5 68.5 68 68" id="sprite-pdf"><title>pdf</title><path fill="#53abe1" d="M54.217 68.5H21.304c-2.794 0-5.278 2.484-5.278 5.278v57.133c0 2.794 2.484 5.278 5.278 5.278h41.297c2.795 0 5.589-2.484 5.589-5.278V82.162L54.217 68.5zm9.315 62.411c0 .311-.311.932-.932.932H21.304c-.311 0-.932-.311-.932-.932V73.778c0-.311.311-.931.932-.931h30.74v8.072c0 1.863 1.242 3.105 3.104 3.105h8.073v46.886h.311z"/><path fill="#53abe1" d="M52.044 115.696c0 3.727-2.795 7.142-6.21 7.142H6.71c-3.726 0-6.21-3.416-6.21-7.142v-12.109c0-3.727 2.795-5.899 6.21-5.899h39.124c3.726 0 6.21 2.174 6.21 5.899v12.109z"/><path fill="#FFF" d="M18.199 111.039c-.621.621-1.863.932-3.105.932H12.3v4.657H9.505v-13.041h5.278c1.242 0 2.174.311 2.795.932.621.62 1.242 1.552 1.242 3.104.62 1.863.311 2.795-.621 3.416zm-1.863-4.658c-.311-.311-.932-.311-1.242-.311H12.3v3.727h2.483c.621 0 1.242-.311 1.242-.311.311-.311.311-.932.311-1.242.621-.932.31-1.242 0-1.863zM29.066 104.208c.932.311 1.553.931 2.174 1.552.311.621.621 1.242.932 2.174.311.621.311 1.242.311 2.174 0 1.863-.311 3.105-1.242 4.347-.932 1.553-2.174 2.484-4.347 2.484h-5.279v-13.041h5.279c1.241-.001 1.862-.001 2.172.31zm-4.657 1.862v8.384h2.483c1.242 0 2.174-.621 2.795-1.862.311-.621.311-1.553.311-2.484 0-1.242-.311-2.174-.621-2.795s-1.242-1.241-2.484-1.241l-2.484-.002zM34.655 103.897h9.315v2.173h-6.52v2.795h5.589v2.174H37.45v5.278h-2.795v-12.42z"/></symbol><symbol viewBox="0 0 20 20" id="sprite-print"><title>print</title><g fill="#0075A9"><path d="M19.5 5H16V.5a.5.5 0 0 0-.5-.5h-11a.5.5 0 0 0-.5.5V5H.5a.5.5 0 0 0-.5.5v10a.5.5 0 0 0 .5.5H4v3.5a.5.5 0 0 0 .5.5h11a.5.5 0 0 0 .5-.5V16h3.5a.5.5 0 0 0 .5-.5v-10a.5.5 0 0 0-.5-.5zM5 1h10v4H5V1zm10 18H5v-6h10v6zm4-4h-3v-2.5a.5.5 0 0 0-.5-.5h-11a.5.5 0 0 0-.5.5V15H1V6h18v9z"/><path d="M14 9.5a.5.5 0 0 0 .5.5h2a.5.5 0 0 0 0-1h-2a.5.5 0 0 0-.5.5zM13.5 14h-7a.5.5 0 0 0 0 1h7a.5.5 0 0 0 0-1zM11.5 16h-5a.5.5 0 0 0 0 1h5a.5.5 0 0 0 0-1z"/></g></symbol><symbol viewBox="0.5 68.5 68 68" id="sprite-rss"><title>rss</title><path fill="#82AADB" d="M62.129 68.5c-.13 0-.13 0 0 0H.5v67.87h68V68.5h-6.371z"/><path fill="#FFF" d="M41.426 122.428h-9.041v-.88c0-4.662-1.769-8.999-4.981-12.212-3.213-3.212-7.503-4.98-12.081-4.98h-.75v-8.781h.75c14.394 0 26.104 11.71 26.104 26.104v.749zm-7.551-1.5h6.039c-.39-12.972-10.87-23.452-23.842-23.842v5.784c4.696.184 9.072 2.086 12.392 5.405 3.352 3.353 5.261 7.826 5.411 12.653zm20.423 1.37h-8.911v-.75c0-16.649-13.545-30.195-30.195-30.195h-.75v-8.91h.75c21.563 0 39.106 17.542 39.106 39.105v.75zm-7.42-1.5h5.912c-.396-20.142-16.707-36.452-36.849-36.849v5.912c16.883.395 30.543 14.054 30.937 30.937zm-26.615 1.5c-3.264 0-5.821-2.557-5.821-5.821 0-3.155 2.666-5.82 5.821-5.82a5.827 5.827 0 0 1 5.82 5.82 5.827 5.827 0 0 1-5.82 5.821zm0-10.142c-2.302 0-4.321 2.019-4.321 4.32 0 2.464 1.858 4.321 4.321 4.321a4.325 4.325 0 0 0 4.32-4.321 4.326 4.326 0 0 0-4.32-4.32z"/></symbol><symbol viewBox="0 0 18.749 18.764" id="sprite-search"><title>search</title><g stroke="#0075A9" fill="none"><ellipse ry="5.947" rx="5.823" cy="6.448" cx="6.html"/><path d="M10.551 10.392l7.841 8.023"/></g></symbol><symbol viewBox="0 0 2048 2048" id="sprite-share"><title>share</title><path d="M1920 768q0 26-19 45l-512 512q-19 19-45 19t-45-19-19-45v-256h-224q-98 0-175.5 6t-154 21.5-133 42.5-105.5 69.5-80 101-48.5 138.5-17.5 181q0 55 5 123 0 6 2.5 23.5t2.5 26.5q0 15-8.5 25t-23.5 10q-16 0-28-17-7-9-13-22t-13.5-30-10.5-24q-127-285-127-451 0-199 53-333 162-403 875-403h224V256q0-26 19-45t45-19 45 19l512 512q19 19 19 45z" fill="#fff"/></symbol><symbol viewBox="0 0 20 20" id="sprite-telephone"><title>telephone</title><path fill="#0075A9" d="M18.616.884C18.021.289 17.424 0 16.788 0c-1.168 0-2.141.974-3.267 2.102l-.18.181C11.993 3.627 11.31 4.9 11.31 6.065c0 .658.216 1.27.643 1.821l-4.059 4.078c-1.529-1.182-3.5-.719-5.608 1.386l-.18.179C.977 14.652 0 15.624 0 16.791c0 .636.289 1.233.885 1.827C1.776 19.51 2.961 20 4.223 20s2.447-.49 3.339-1.382L18.615 7.553A4.676 4.676 0 0 0 20 4.217 4.677 4.677 0 0 0 18.616.884zm-.707 5.962L6.855 17.911c-1.405 1.404-3.858 1.405-5.264-.001-.398-.396-.591-.763-.591-1.118 0-.752.84-1.588 1.812-2.556l.181-.18c1.136-1.135 2.202-1.735 3.08-1.735.544 0 1.032.224 1.491.682a.5.5 0 0 0 .708-.001l4.721-4.743a.5.5 0 0 0-.001-.706c-.459-.458-.682-.944-.682-1.488 0-.877.601-1.94 1.737-3.074l.182-.182C15.198 1.838 16.035 1 16.788 1c.356 0 .724.193 1.122.591A3.688 3.688 0 0 1 19 4.217c0 .993-.387 1.927-1.091 2.629z"/></symbol><symbol viewBox="0 0 32 32" id="sprite-twitter"><title>twitter</title><path d="M31 6.697a12.29 12.29 0 0 1-3.534.968 6.176 6.176 0 0 0 2.706-3.405 12.303 12.303 0 0 1-3.908 1.494 6.156 6.156 0 0 0-10.489 5.613 17.476 17.476 0 0 1-12.687-6.43 6.132 6.132 0 0 0-.832 3.094 6.152 6.152 0 0 0 2.737 5.123 6.129 6.129 0 0 1-2.787-.771l-.001.08a6.16 6.16 0 0 0 4.938 6.034 6.206 6.206 0 0 1-2.781.104 6.16 6.16 0 0 0 5.749 4.275 12.34 12.34 0 0 1-7.643 2.634c-.497 0-.987-.028-1.469-.085a17.411 17.411 0 0 0 9.436 2.766c11.321 0 17.511-9.379 17.511-17.511 0-.268-.005-.534-.016-.799A12.492 12.492 0 0 0 31 6.697z"/></symbol><symbol viewBox="-21.5 42.5 20 20" id="sprite-website"><title>website</title><path fill="#54AADF" d="M-11.5 42.5c-5.514 0-10 4.486-10 10s4.486 10 10 10 10-4.486 10-10-4.486-10-10-10zm8.941 9h-3.967a18.915 18.915 0 0 0-.379-3h3.455a8.89 8.89 0 0 1 .891 3zm-1.462-4h-3.133c-.428-1.506-1.043-2.752-1.791-3.625A9.04 9.04 0 0 1-4.021 47.5zm-7.979 4h-3.472c.055-1.063.198-2.073.409-3H-12v3zm1-3h3.063c.211.927.354 1.938.41 3H-11v-3zm-1 4v3h-3.257a18.664 18.664 0 0 1-.243-3h3.5zm1 0h3.499c0 1.048-.089 2.057-.243 3H-11v-3zm2.803-5H-11v-3.927c1.151.34 2.166 1.831 2.803 3.927zM-12 43.573V47.5h-2.803c.636-2.096 1.652-3.587 2.803-3.927zm-2.056.302c-.747.873-1.363 2.119-1.79 3.625h-3.132a9.031 9.031 0 0 1 4.922-3.625zM-19.55 48.5h3.455c-.199.932-.33 1.938-.381 3h-3.965a8.912 8.912 0 0 1 .891-3zm-.95 4h4c0 1.05.077 2.057.221 3h-3.696a8.932 8.932 0 0 1-.525-3zm.95 4h3.455c.416 1.955 1.133 3.564 2.04 4.625A9.031 9.031 0 0 1-19.55 56.5zm4.487 0H-12v4.916c-1.325-.393-2.47-2.307-3.063-4.916zM-11 61.416V56.5h3.063c-.595 2.609-1.738 4.523-3.063 4.916zm2.055-.291c.907-1.061 1.625-2.67 2.041-4.625h3.455a9.039 9.039 0 0 1-5.496 4.625zm2.224-5.625c.144-.943.221-1.95.221-3h4a8.932 8.932 0 0 1-.525 3h-3.696z"/></symbol><symbol viewBox="0 0 32 32" id="sprite-wordpress"><title>wordpress</title><path d="M16 0C7.178 0 0 7.177 0 15.999 0 24.822 7.178 32 16 32s16-7.178 16-16.001C32 7.177 24.822 0 16 0M1.615 15.999c0-2.085.447-4.065 1.245-5.854l6.862 18.801c-4.799-2.332-8.107-7.253-8.107-12.947M16 30.386c-1.412 0-2.774-.207-4.064-.586l4.317-12.542 4.421 12.114c.029.071.064.137.104.198a14.35 14.35 0 0 1-4.778.816m1.982-21.131c.866-.046 1.646-.137 1.646-.137.775-.092.684-1.23-.092-1.186 0 0-2.33.183-3.834.183-1.414 0-3.789-.183-3.789-.183-.775-.045-.866 1.14-.091 1.186 0 0 .733.091 1.509.137l2.241 6.141-3.148 9.441L7.187 9.255c.866-.046 1.646-.137 1.646-.137.775-.092.684-1.23-.092-1.186 0 0-2.329.183-3.834.183-.27 0-.588-.006-.926-.018C6.553 4.192 10.975 1.614 16 1.614c3.745 0 7.154 1.432 9.714 3.776-.062-.003-.122-.011-.187-.011-1.413 0-2.415 1.23-2.415 2.553 0 1.186.684 2.188 1.413 3.374.547.958 1.186 2.188 1.186 3.968 0 1.23-.474 2.659-1.095 4.649l-1.435 4.794-5.199-15.462zm10.641-.157a14.313 14.313 0 0 1 1.762 6.901c0 5.308-2.876 9.94-7.152 12.435l4.394-12.704c.82-2.052 1.094-3.693 1.094-5.152a11.186 11.186 0 0 0-.098-1.48"/></symbol><symbol viewBox="0 0 32 32" id="sprite-youtube"><title>youtube</title><path d="M31.681 9.602s-.312-2.205-1.272-3.176c-1.216-1.274-2.581-1.281-3.206-1.355-4.478-.324-11.195-.324-11.195-.324h-.014s-6.717 0-11.195.324c-.626.074-1.99.08-3.207 1.355C.632 7.397.32 9.602.32 9.602S0 12.191 0 14.781v2.428c0 2.589.319 5.179.319 5.179s.312 2.205 1.272 3.177c1.217 1.274 2.816 1.233 3.528 1.367 2.562.246 10.881.322 10.881.322s6.725-.011 11.202-.334c.625-.075 1.99-.081 3.206-1.355.96-.972 1.272-3.177 1.272-3.177s.32-2.59.32-5.179v-2.428c0-2.59-.319-5.179-.319-5.179zM12.696 20.15l-.001-8.99 8.646 4.511-8.645 4.479z"/></symbol></svg>