<?xml version="1.0" encoding="UTF-8"?>
<!DOCTYPE svg PUBLIC "-//W3C//DTD SVG 1.1//EN" "http://www.w3.org/Graphics/SVG/1.1/DTD/svg11.dtd">
<svg xmlns="http://www.w3.org/2000/svg" xmlns:xlink="http://www.w3.org/1999/xlink"><defs/><symbol id="chevron" viewBox="0 0 10.03 6.43"><g><path fill="currentColor" d="M5.01,6.43L.31,1.72C-.09,1.34-.1,.7,.28,.31c.38-.4,1.02-.41,1.41-.03l.03,.03,3.29,3.29L8.31,.31c.38-.4,1.02-.41,1.41-.03,.4,.38,.41,1.02,.03,1.41l-.03,.03L5.01,6.43Z"/></g></symbol><symbol id="search" viewBox="0 0 50 50"><path fill="currentColor" d="M50 46.35 37.45 34.23a20.14 20.14 0 0 0 5.31-13.58C42.76 9.26 33.17 0 21.38 0S0 9.26 0 20.65s9.59 20.64 21.38 20.64a21.75 21.75 0 0 0 12.07-3.62L46.22 50ZM5.35 20.65c0-8.54 7.19-15.49 16-15.49s16 7 16 15.49-7.19 15.48-16 15.48-16-6.94-16-15.48Z"/></symbol></svg>