<?xml version="1.0" encoding="UTF-8"?>
<!DOCTYPE svg PUBLIC "-//W3C//DTD SVG 1.1//EN" "http://www.w3.org/Graphics/SVG/1.1/DTD/svg11.dtd">
<svg xmlns="http://www.w3.org/2000/svg" xmlns:xlink="http://www.w3.org/1999/xlink"><defs/><symbol id="chevron" viewBox="0 0 10.03 6.43"><g><path fill="currentColor" d="M5.01,6.43L.31,1.72C-.09,1.34-.1,.7,.28,.31c.38-.4,1.02-.41,1.41-.03l.03,.03,3.29,3.29L8.31,.31c.38-.4,1.02-.41,1.41-.03,.4,.38,.41,1.02,.03,1.41l-.03,.03L5.01,6.43Z"/></g></symbol><symbol id="file" viewBox="0 0 24 24"><g id="c"><rect width="24" height="24" style="fill:none;"/><path d="M8,16h8v2H8v-2Zm0-4h8v2H8v-2ZM14,2H6c-1.1,0-2,.9-2,2V20c0,1.1,.89,1.99,1.99,2h12.01c1.1,0,2-.9,2-2V8L14,2Zm4,18H6V4h7v5h5v11Z"/></g></symbol></svg>