<?xml version="1.0" encoding="UTF-8" standalone="no"?>
<!DOCTYPE svg PUBLIC "-//W3C//DTD SVG 1.1//EN" "http://www.w3.org/Graphics/SVG/1.1/DTD/svg11.dtd">
<svg width="100%" height="100%" viewBox="0 0 65 64" version="1.1" xmlns="http://www.w3.org/2000/svg" xmlns:xlink="http://www.w3.org/1999/xlink" xml:space="preserve" xmlns:serif="http://www.serif.com/" style="fill-rule:evenodd;clip-rule:evenodd;stroke-linejoin:round;stroke-miterlimit:2;">
    <g transform="matrix(3.98069,0,0,3.96974,0.195534,0.136865)">
        <path d="M6.748,15.941L6.748,10.376L4.718,10.376L4.718,8.05L6.75,8.05L6.75,6.275C6.75,4.258 7.945,3.144 9.772,3.144C10.648,3.144 11.563,3.301 11.563,3.301L11.563,5.281L10.554,5.281C9.561,5.281 9.251,5.902 9.251,6.539L9.251,8.049L11.469,8.049L11.115,10.375L9.25,10.375L9.25,15.938C8.839,16.004 8.418,16.038 7.99,16.038C7.567,16.038 7.153,16.005 6.748,15.941ZM2.151,2.556C3.606,0.978 5.684,-0.009 7.99,-0.009C9.071,-0.009 10.102,0.208 11.042,0.602C10.105,0.213 9.077,-0.001 8,-0.001C5.691,-0 3.611,0.983 2.151,2.556Z" style="fill:white;"/>
    </g>
</svg>
